<svg width="578" height="200" viewBox="0 0 578 200" fill="none" xmlns="http://www.w3.org/2000/svg">
<path d="M547.033 195H31.967C30.8807 195 30 196.04 30 197.323V197.677C30 198.96 30.8807 200 31.967 200H547.033C548.119 200 549 198.96 549 197.677V197.323C549 196.04 548.119 195 547.033 195Z" fill="#415256"/>
<path d="M21.8265 194.611H2.30998C1.03422 194.611 0 195.646 0 196.922V197.273C0 198.548 1.03422 199.583 2.30998 199.583H21.8265C23.1023 199.583 24.1365 198.548 24.1365 197.273V196.922C24.1365 195.646 23.1023 194.611 21.8265 194.611Z" fill="#415256"/>
<path d="M574.829 200H558.008C556.347 200 555 198.796 555 197.31C555 195.824 556.347 194.62 558.008 194.62H574.829C576.49 194.62 577.839 195.824 577.839 197.31C577.839 198.787 576.49 200 574.829 200Z" fill="#415256"/>
<path d="M421.662 0H153.677C148.486 0 144.278 4.20852 144.278 9.39999V167.99C144.278 173.181 148.486 177.39 153.677 177.39H421.662C426.853 177.39 431.061 173.181 431.061 167.99V9.39999C431.061 4.20852 426.853 0 421.662 0Z" fill="#415256"/>
<path d="M422.798 9.26318H152.54V166.63H422.798V9.26318Z" fill="white"/>
<path d="M156.374 9.26562H152.54V166.633H156.374V9.26562Z" fill="#415256"/>
<path d="M257.438 13.1L156.375 114.178V155.133L298.404 13.0898L257.438 13.1Z" fill="#F1F6F9"/>
<path d="M422.796 9.26318V48.5346L304.712 166.63H213.218L368.704 11.1326V9.26318H422.796Z" fill="#F1F6F9"/>
<path d="M422.796 61.5122V86.4918L342.665 166.631H317.688L422.796 61.5122Z" fill="#F1F6F9"/>
<path d="M422.798 9.26562H418.963V166.633H422.798V9.26562Z" fill="#415256"/>
<path d="M152.54 9.26296V13.0977L422.798 13.0977V9.26296L152.54 9.26296Z" fill="#415256"/>
<path d="M119.266 179.311H456.128V186.311C456.128 188.512 455.254 190.624 453.697 192.181C452.14 193.738 450.028 194.613 447.827 194.613H127.565C125.364 194.613 123.252 193.738 121.696 192.181C120.139 190.624 119.264 188.512 119.264 186.311V179.311H119.266Z" fill="#415256"/>
<path d="M437.384 175.918H137.954C137.056 175.918 136.196 176.275 135.561 176.91C134.927 177.544 134.57 178.405 134.57 179.302H440.766C440.766 178.858 440.679 178.418 440.509 178.007C440.339 177.597 440.09 177.224 439.776 176.91C439.462 176.595 439.089 176.346 438.679 176.176C438.269 176.006 437.829 175.918 437.384 175.918Z" fill="#93A5AA"/>
<path d="M292.651 179.342H257.438L260.053 182.769C260.416 183.244 260.883 183.63 261.42 183.895C261.956 184.161 262.546 184.299 263.144 184.299H312.248C312.846 184.299 313.436 184.161 313.972 183.896C314.509 183.63 314.976 183.245 315.339 182.769L317.955 179.342H292.651Z" fill="#718084"/>
<path d="M258.767 102.58C257.406 101.967 255.586 101.653 253.36 101.653H251.952V69.2265C251.952 64.0591 249.644 61.4367 245.095 61.4367C243.721 61.4147 242.394 61.9353 241.402 62.8857C240.443 63.7877 239.206 65.253 237.729 67.2428L215.243 97.3163C214.618 98.1326 214.095 98.8265 213.672 99.3979C213.241 99.9714 212.823 100.571 212.427 101.18C212.047 101.75 211.733 102.362 211.492 103.004C211.285 103.572 211.176 104.171 211.172 104.775C211.172 106.98 211.894 108.751 213.321 110.041C214.747 111.331 216.861 111.971 219.647 111.971H240.524V119.453C240.524 121.667 241.053 123.38 242.091 124.541C243.13 125.702 244.54 126.31 246.234 126.31C247.928 126.31 249.36 125.728 250.397 124.584C251.433 123.439 251.946 121.726 251.946 119.453V111.971H254.125C256.349 111.971 258.053 111.563 259.194 110.773C260.379 109.957 260.979 108.629 260.979 106.855C260.979 104.682 260.235 103.243 258.767 102.58ZM240.524 78.653V101.653H223.503L240.524 78.653Z" fill="#3FCAEC"/>
<path d="M302.15 67.4773C300.336 65.6312 298.158 64.1834 295.753 63.2263C293.341 62.2651 290.621 61.7773 287.67 61.7773C283.197 61.7773 279.289 62.8773 276.055 65.0426C272.82 67.208 270.321 70.41 268.627 74.5447C267.658 77.0243 266.935 80.0263 266.482 83.4631C266.004 87.3081 265.776 91.1803 265.801 95.0549C265.784 98.1607 265.989 101.264 266.413 104.341C266.783 107.028 267.438 109.669 268.368 112.218C270.114 116.569 272.751 120.026 276.208 122.494C279.432 124.745 283.232 126.03 287.161 126.199C291.09 126.368 294.986 125.413 298.391 123.447C301.491 121.61 304.052 118.957 306.005 115.575C307.59 112.712 308.667 109.596 309.19 106.365C309.758 103.02 310.045 98.9733 310.045 94.3243C310.045 85.7651 308.948 79.0426 306.78 74.3406C305.534 71.6324 303.975 69.3263 302.15 67.4773ZM297.612 93.4916C297.612 98.8998 297.314 103.33 296.728 106.655C296.149 109.937 295.137 112.485 293.716 114.232C292.296 115.979 290.421 116.796 287.925 116.796C285.513 116.796 283.658 115.99 282.256 114.332C280.854 112.675 279.807 110.128 279.207 106.822C278.595 103.471 278.281 99.0998 278.281 93.8304C278.281 86.0753 279.005 80.2814 280.438 76.5855C281.84 72.9651 284.26 71.2039 287.841 71.2039C290.306 71.2039 292.257 72.008 293.641 73.5896C295.055 75.208 296.09 77.6569 296.685 80.8631C297.304 84.1202 297.616 88.3671 297.616 93.4916H297.612Z" fill="#3FCAEC"/>
<path d="M362.009 102.58C360.648 101.967 358.828 101.653 356.603 101.653H355.187V69.2265C355.187 64.0591 352.881 61.4367 348.331 61.4367C346.957 61.4147 345.63 61.9353 344.637 62.8857C343.678 63.7877 342.441 65.253 340.964 67.2428L318.476 97.3163C317.855 98.1326 317.331 98.8265 316.905 99.3979C316.474 99.9714 316.056 100.571 315.66 101.18C315.28 101.75 314.967 102.362 314.728 103.004C314.518 103.571 314.409 104.171 314.405 104.775C314.405 106.98 315.13 108.751 316.554 110.041C317.978 111.331 320.095 111.971 322.88 111.971H343.764V119.453C343.764 121.667 344.292 123.38 345.333 124.541C346.374 125.702 347.782 126.31 349.475 126.31C351.169 126.31 352.6 125.728 353.636 124.584C354.673 123.439 355.185 121.726 355.185 119.453V111.971H357.364C359.589 111.971 361.293 111.563 362.433 110.773C363.619 109.957 364.219 108.629 364.219 106.855C364.221 104.682 363.478 103.243 362.009 102.58ZM343.766 78.653V101.653H326.745L343.766 78.653Z" fill="#3FCAEC"/>
</svg>
