<svg width="16" height="16" viewBox="0 0 16 16" fill="none" xmlns="http://www.w3.org/2000/svg">
<path d="M14 10.8335H10C9.72667 10.8335 9.5 10.6068 9.5 10.3335C9.5 10.0602 9.72667 9.8335 10 9.8335H14C14.2733 9.8335 14.5 10.0602 14.5 10.3335C14.5 10.6068 14.2733 10.8335 14 10.8335Z" fill="#93A5AA"/>
<path d="M14 13.5H10C9.72667 13.5 9.5 13.2733 9.5 13C9.5 12.7267 9.72667 12.5 10 12.5H14C14.2733 12.5 14.5 12.7267 14.5 13C14.5 13.2733 14.2733 13.5 14 13.5Z" fill="#93A5AA"/>
<path d="M14.6667 5.68016V2.6535C14.6667 1.7135 14.24 1.3335 13.18 1.3335H10.4867C9.42667 1.3335 9 1.7135 9 2.6535V5.6735C9 6.62016 9.42667 6.9935 10.4867 6.9935H13.18C14.24 7.00016 14.6667 6.62016 14.6667 5.68016Z" fill="#93A5AA"/>
<path d="M7.00016 5.68016V2.6535C7.00016 1.7135 6.5735 1.3335 5.5135 1.3335H2.82016C1.76016 1.3335 1.3335 1.7135 1.3335 2.6535V5.6735C1.3335 6.62016 1.76016 6.9935 2.82016 6.9935H5.5135C6.5735 7.00016 7.00016 6.62016 7.00016 5.68016Z" fill="#93A5AA"/>
<path d="M7.00016 13.18V10.4867C7.00016 9.42667 6.5735 9 5.5135 9H2.82016C1.76016 9 1.3335 9.42667 1.3335 10.4867V13.18C1.3335 14.24 1.76016 14.6667 2.82016 14.6667H5.5135C6.5735 14.6667 7.00016 14.24 7.00016 13.18Z" fill="#93A5AA"/>
</svg>
