<svg width="15" height="16" viewBox="0 0 15 16" fill="none" xmlns="http://www.w3.org/2000/svg">
<path d="M12.7513 5.35771C12.9107 5.35771 13.0555 5.42731 13.1698 5.5449C13.2764 5.6705 13.3301 5.8265 13.3146 5.9913C13.3146 6.0457 12.8882 11.4376 12.6447 13.7072C12.4922 15.1 11.5943 15.9456 10.2475 15.9688C9.21194 15.992 8.19971 16 7.20303 16C6.1449 16 5.1101 15.992 4.10565 15.9688C2.80399 15.9376 1.90535 15.0768 1.76063 13.7072C1.5101 11.4296 1.09151 6.0457 1.08373 5.9913C1.07595 5.8265 1.12886 5.6705 1.23623 5.5449C1.34204 5.42731 1.49454 5.35771 1.65482 5.35771H12.7513ZM8.85178 0C9.55902 0 10.1908 0.493595 10.3736 1.19759L10.5043 1.78158C10.6102 2.25758 11.0225 2.59437 11.4971 2.59437H13.8297C14.1409 2.59437 14.4 2.85277 14.4 3.18157V3.48557C14.4 3.80636 14.1409 4.07276 13.8297 4.07276H0.571083C0.259088 4.07276 0 3.80636 0 3.48557V3.18157C0 2.85277 0.259088 2.59437 0.571083 2.59437H2.90365C3.37748 2.59437 3.78984 2.25758 3.89643 1.78238L4.01859 1.23679C4.20843 0.493595 4.8332 0 5.54822 0H8.85178Z" fill="#F36363"/>
</svg>
