<svg width="1440" height="728" viewBox="0 0 1440 728" fill="none" xmlns="http://www.w3.org/2000/svg">
<g clip-path="url(#clip0_14_2199)">
<rect width="1440" height="728" fill="#FAFCFD"/>
<path d="M1172.41 689.009L1240.5 728.297V806.874L1172.41 846.162L1104.32 806.874V728.297L1172.41 689.009ZM1238.08 729.614L1172.41 691.643L1106.73 729.614V805.337L1172.41 843.309L1238.08 805.337V729.614Z" fill="#EEF5F7"/>
<path d="M1038.64 689.009L1106.73 728.297V806.874L1038.64 846.162L970.548 806.874V728.297L1038.64 689.009ZM1104.32 729.614L1038.64 691.643L972.964 729.614V805.337L1038.64 843.309L1104.32 805.337V729.614Z" fill="#EEF5F7"/>
<path d="M905.092 689.009L973.184 728.297V806.874L905.092 846.162L837 806.874V728.297L905.092 689.009ZM970.768 729.614L905.092 691.863L839.416 729.614V805.337L905.092 843.309L970.768 805.337V729.614Z" fill="#EEF5F7"/>
<path d="M1506.72 573.34L1574.81 612.628V691.204L1506.72 730.492L1438.62 691.204V612.628L1506.72 573.34ZM1572.39 613.945L1506.72 575.973L1441.04 613.945V689.668L1506.72 727.639L1572.39 689.668V613.945Z" fill="#EEF5F7"/>
<path d="M1372.95 573.34L1441.04 612.628V691.204L1372.95 730.492L1304.86 691.204V612.628L1372.95 573.34ZM1438.62 613.945L1372.95 575.973L1307.27 613.945V689.668L1372.95 727.639L1438.62 689.668V613.945Z" fill="#EEF5F7"/>
<path d="M1239.18 573.34L1307.27 612.628V691.204L1239.18 730.492L1171.09 691.204V612.628L1239.18 573.34ZM1304.86 613.945L1239.18 575.973L1173.51 613.945V689.668L1239.18 727.639L1304.86 689.668V613.945Z" fill="#EEF5F7"/>
<path d="M1105.63 573.34L1173.73 612.628V691.204L1105.63 730.492L1037.54 691.204V612.628L1105.63 573.34ZM1171.31 613.945L1105.63 575.973L1039.96 613.945V689.668L1105.63 727.639L1171.31 689.668V613.945Z" fill="#EEF5F7"/>
<path d="M971.866 573.34L1039.96 612.628V691.204L971.866 730.492L903.774 691.204V612.628L971.866 573.34ZM1037.54 613.945L971.866 575.973L906.19 613.945V689.668L971.866 727.639L1037.54 689.668V613.945Z" fill="#EEF5F7"/>
<path d="M1439.72 457.67L1507.81 496.958V575.534L1439.72 614.822L1371.63 575.534V496.958L1439.72 457.67ZM1505.4 498.275L1439.72 460.304L1374.05 498.275V573.998L1439.72 611.969L1505.4 573.998V498.275Z" fill="#EEF5F7"/>
<path d="M1306.17 457.67L1374.27 496.958V575.534L1306.17 614.822L1238.08 575.534V496.958L1306.17 457.67ZM1371.85 498.275L1306.17 460.304L1240.5 498.275V573.998L1306.17 611.969L1371.85 573.998V498.275Z" fill="#EEF5F7"/>
<path d="M1038.64 457.67L1106.73 496.958V575.534L1038.64 614.822L970.548 575.534V496.958L1038.64 457.67ZM1104.32 498.275L1038.64 460.304L972.964 498.275V573.998L1038.64 611.969L1104.32 573.998V498.275Z" fill="#EEF5F7"/>
<path d="M1372.95 342L1441.04 381.288V459.865L1372.95 499.153L1304.86 459.865V381.288L1372.95 342ZM1438.62 382.605L1372.95 344.634L1307.27 382.605V458.328L1372.95 496.299L1438.62 458.328V382.605Z" fill="#EEF5F7"/>
<path d="M245.401 92.1528L177.309 52.8646L177.309 -25.7118L245.401 -65L313.493 -25.7118L313.493 52.8646L245.401 92.1528ZM179.725 51.5477L245.401 89.519L311.077 51.5477L311.077 -24.1754L245.401 -62.1466L179.725 -24.1754L179.725 51.5477Z" fill="#EEF5F7"/>
<path d="M379.168 92.1528L311.077 52.8646L311.077 -25.7118L379.168 -65L447.26 -25.7118L447.26 52.8646L379.168 92.1528ZM313.493 51.5477L379.168 89.519L444.844 51.5477L444.844 -24.1754L379.168 -62.1466L313.493 -24.1754L313.493 51.5477Z" fill="#EEF5F7"/>
<path d="M512.716 92.1528L444.624 52.8646L444.624 -25.7118L512.716 -65L580.808 -25.7118L580.808 52.8646L512.716 92.1528ZM447.041 51.5477L512.716 89.2995L578.392 51.5477L578.392 -24.1754L512.716 -62.1466L447.041 -24.1754L447.041 51.5477Z" fill="#EEF5F7"/>
<path d="M44.8593 207.823L-23.2325 168.535L-23.2325 89.9581L44.8593 50.6699L112.951 89.9581L112.951 168.535L44.8593 207.823ZM-20.8164 167.218L44.8593 205.189L110.535 167.218L110.535 91.4946L44.8593 53.5233L-20.8164 91.4946L-20.8164 167.218Z" fill="#EEF5F7"/>
<path d="M178.627 207.823L110.535 168.535L110.535 89.9581L178.627 50.6699L246.719 89.9581L246.719 168.535L178.627 207.823ZM112.951 167.218L178.627 205.189L244.303 167.218L244.303 91.4946L178.627 53.5233L112.951 91.4946L112.951 167.218Z" fill="#EEF5F7"/>
<path d="M312.175 207.823L244.083 168.535L244.083 89.9581L312.175 50.6699L380.267 89.9581L380.267 168.535L312.175 207.823ZM246.499 167.218L312.175 205.189L377.85 167.218L377.85 91.4946L312.175 53.5233L246.499 91.4946L246.499 167.218Z" fill="#EEF5F7"/>
<path d="M445.942 207.823L377.85 168.535L377.85 89.9581L445.942 50.6699L514.034 89.9581L514.034 168.535L445.942 207.823ZM380.267 167.218L445.942 205.189L511.618 167.218L511.618 91.4946L445.942 53.5233L380.267 91.4946L380.267 167.218Z" fill="#EEF5F7"/>
<path d="M-21.9148 323.492L-90.0066 284.204L-90.0066 205.628L-21.9147 166.339L46.1771 205.628L46.1771 284.204L-21.9148 323.492ZM-87.5905 282.887L-21.9148 320.858L43.761 282.887L43.761 207.164L-21.9147 169.193L-87.5904 207.164L-87.5905 282.887Z" fill="#EEF5F7"/>
<path d="M111.633 323.492L43.5414 284.204L43.5414 205.628L111.633 166.339L179.725 205.628L179.725 284.204L111.633 323.492ZM45.9576 282.887L111.633 320.858L177.309 282.887L177.309 207.164L111.633 169.193L45.9576 207.164L45.9576 282.887Z" fill="#EEF5F7"/>
<path d="M379.168 323.492L311.077 284.204L311.077 205.628L379.168 166.339L447.26 205.628L447.26 284.204L379.168 323.492ZM313.493 282.887L379.168 320.858L444.844 282.887L444.844 207.164L379.168 169.193L313.493 207.164L313.493 282.887Z" fill="#EEF5F7"/>
<path d="M44.8593 439.162L-23.2325 399.874L-23.2325 321.297L44.8593 282.009L112.951 321.298L112.951 399.874L44.8593 439.162ZM-20.8164 398.557L44.8593 436.528L110.535 398.557L110.535 322.834L44.8593 284.863L-20.8164 322.834L-20.8164 398.557Z" fill="#EEF5F7"/>
</g>
<defs>
<clipPath id="clip0_14_2199">
<rect width="1440" height="728" fill="white"/>
</clipPath>
</defs>
</svg>
