<svg width="488" height="488" viewBox="0 0 488 488" fill="none" xmlns="http://www.w3.org/2000/svg">
<rect width="488" height="488" rx="8" fill="#F0FAFD"/>
<path d="M68.8992 406.47C68.2575 406.47 67.707 406.389 67.2479 406.227C66.7888 406.071 66.3923 405.828 66.0584 405.499C65.8497 405.291 65.6879 405.071 65.5731 404.842C65.4636 404.612 65.3827 404.388 65.3305 404.169C65.2836 403.944 65.2549 403.733 65.2444 403.535C65.2392 403.337 65.2366 403.167 65.2366 403.026V402.909C65.2418 402.716 65.247 402.439 65.2523 402.079C65.2627 401.714 65.2679 401.286 65.2679 400.796C65.2679 400.305 65.2653 399.765 65.2601 399.176C65.2549 398.586 65.2392 397.999 65.2131 397.415C65.1923 396.825 65.1584 396.259 65.1114 395.717C65.0697 395.174 65.0097 394.702 64.9314 394.3L67.2714 393.588C67.3392 393.932 67.394 394.339 67.4357 394.809C67.4775 395.273 67.5114 395.761 67.5375 396.272C67.5688 396.784 67.5897 397.298 67.6001 397.814C67.6157 398.331 67.6262 398.811 67.6314 399.254C67.6366 399.645 67.621 400.029 67.5844 400.404C67.5531 400.775 67.527 401.14 67.5062 401.5C67.4853 401.855 67.4853 402.202 67.5062 402.541C67.5323 402.875 67.6053 403.201 67.7253 403.519C67.7723 403.639 67.8297 403.731 67.8975 403.793C67.9705 403.856 68.054 403.903 68.1479 403.934C68.2418 403.96 68.3436 403.976 68.4531 403.981C68.5679 403.986 68.6931 403.989 68.8288 403.989H68.8992C69.0662 403.989 69.2253 404.023 69.3766 404.091C69.5279 404.158 69.6584 404.25 69.7679 404.364C69.8827 404.474 69.974 404.604 70.0418 404.756C70.1097 404.907 70.1436 405.066 70.1436 405.233C70.1436 405.405 70.1097 405.567 70.0418 405.718C69.974 405.87 69.8827 406 69.7679 406.11C69.6584 406.224 69.5279 406.313 69.3766 406.376C69.2253 406.438 69.0662 406.47 68.8992 406.47Z" fill="#415256"/>
<path d="M67.6503 405.233C67.6503 405.061 67.6816 404.899 67.7442 404.748C67.8068 404.597 67.8955 404.466 68.0103 404.357C68.1199 404.247 68.2503 404.161 68.4016 404.098C68.5529 404.031 68.7146 403.997 68.8868 403.997H69.0199C69.7451 403.997 70.2929 403.882 70.6633 403.652C71.0338 403.418 71.219 403.063 71.219 402.588C71.219 402.494 71.219 402.411 71.219 402.338C71.2242 402.264 71.2164 402.171 71.1955 402.056C71.1799 401.936 71.1459 401.782 71.0938 401.594C71.0468 401.401 70.9738 401.138 70.8746 400.804L73.1051 400.264C73.2146 400.577 73.3112 400.929 73.3946 401.32C73.4781 401.706 73.5199 402.129 73.5199 402.588C73.5199 402.739 73.5329 402.898 73.559 403.065C73.5903 403.227 73.6372 403.378 73.6999 403.519C73.7677 403.655 73.8564 403.77 73.9659 403.864C74.0807 403.952 74.2242 403.997 74.3964 403.997C74.5633 403.997 74.7225 404.031 74.8738 404.098C75.0251 404.161 75.1555 404.247 75.2651 404.357C75.3799 404.466 75.4712 404.597 75.539 404.748C75.6068 404.899 75.6407 405.061 75.6407 405.233C75.6407 405.405 75.6068 405.567 75.539 405.718C75.4764 405.87 75.3877 406 75.2729 406.11C75.1581 406.224 75.0251 406.313 74.8738 406.376C74.7277 406.438 74.5712 406.47 74.4042 406.47C73.9033 406.47 73.4755 406.397 73.1207 406.251C72.7659 406.11 72.4607 405.919 72.2051 405.679C71.8294 405.951 71.3807 406.149 70.859 406.274C70.3425 406.404 69.7294 406.47 69.0199 406.47H68.8868C68.7146 406.47 68.5529 406.438 68.4016 406.376C68.2503 406.313 68.1199 406.224 68.0103 406.11C67.8955 406 67.8068 405.87 67.7442 405.718C67.6816 405.567 67.6503 405.405 67.6503 405.233ZM71.892 407.064L73.6294 408.802L71.892 410.539L70.1546 408.802L71.892 407.064Z" fill="#415256"/>
<path d="M73.3222 405.241C73.3222 405.079 73.3535 404.925 73.4162 404.779C73.4788 404.633 73.5622 404.505 73.6666 404.396C73.7709 404.281 73.8962 404.19 74.0422 404.122C74.1831 404.049 74.3344 404.007 74.4962 403.997C74.8875 403.997 75.2162 403.892 75.4822 403.684C75.7536 403.47 75.9857 403.191 76.1788 402.846C76.3718 402.502 76.5362 402.111 76.6718 401.672C76.8075 401.229 76.9353 400.778 77.0553 400.318L79.137 400.694C79.0953 400.877 79.0431 401.091 78.9805 401.336C78.9231 401.576 78.8683 401.826 78.8162 402.087C78.7692 402.348 78.7301 402.604 78.6988 402.854C78.6675 403.099 78.6596 403.316 78.6753 403.504C78.6962 403.691 78.7457 403.84 78.824 403.95C78.9022 404.054 79.0222 404.093 79.184 404.067C79.3927 404.051 79.5805 403.978 79.7475 403.848C79.9196 403.718 80.0736 403.551 80.2092 403.347C80.3449 403.144 80.4649 402.914 80.5692 402.658C80.6736 402.403 80.7622 402.139 80.8353 401.868C80.9136 401.597 80.9762 401.328 81.0231 401.062C81.0753 400.796 81.117 400.553 81.1483 400.334L83.1362 400.671C83.1309 400.827 83.1127 401.02 83.0814 401.25C83.0501 401.479 83.0214 401.722 82.9953 401.978C82.9692 402.228 82.9562 402.481 82.9562 402.737C82.9562 402.987 82.9849 403.214 83.0422 403.418C83.0996 403.616 83.1936 403.778 83.324 403.903C83.4596 404.028 83.6475 404.091 83.8875 404.091C84.0336 404.091 84.1822 404.067 84.3335 404.02C84.4849 403.968 84.6205 403.898 84.7405 403.809C84.8605 403.715 84.957 403.605 85.0301 403.48C85.1083 403.355 85.1475 403.214 85.1475 403.058C85.1475 402.786 85.1031 402.489 85.0144 402.165C84.9257 401.837 84.8188 401.513 84.6936 401.195C84.5683 400.871 84.4353 400.566 84.2944 400.279C84.1588 399.992 84.044 399.75 83.9501 399.551L85.8909 398.464C85.9222 398.531 85.977 398.651 86.0553 398.824C86.1335 398.991 86.2222 399.194 86.3214 399.434C86.4205 399.674 86.5222 399.945 86.6266 400.248C86.7362 400.545 86.8353 400.856 86.924 401.179C87.0127 401.503 87.0857 401.834 87.1431 402.173C87.2005 402.512 87.2292 402.841 87.2292 403.159C87.2292 403.681 87.1562 404.151 87.0101 404.568C86.8692 404.985 86.6527 405.34 86.3605 405.632C86.0735 405.924 85.7109 406.151 85.2727 406.313C84.8396 406.475 84.3309 406.558 83.7466 406.564C83.4649 406.564 83.2092 406.535 82.9796 406.478C82.7501 406.425 82.544 406.35 82.3614 406.251C82.1788 406.157 82.0144 406.044 81.8683 405.914C81.7275 405.784 81.6022 405.645 81.4927 405.499C81.3675 405.661 81.2318 405.807 81.0857 405.938C80.9449 406.063 80.7805 406.17 80.5927 406.258C80.4101 406.352 80.204 406.425 79.9744 406.478C79.7449 406.53 79.484 406.558 79.1918 406.564C78.9362 406.569 78.704 406.545 78.4953 406.493C78.2918 406.446 78.104 406.376 77.9318 406.282C77.7596 406.188 77.6031 406.076 77.4622 405.945C77.3266 405.81 77.1988 405.661 77.0788 405.499C76.9692 405.635 76.844 405.763 76.7031 405.883C76.5622 405.998 76.3953 406.099 76.2022 406.188C76.0092 406.277 75.7849 406.347 75.5292 406.399C75.2736 406.451 74.9762 406.478 74.637 406.478H74.4962C74.3344 406.467 74.1831 406.428 74.0422 406.36C73.8962 406.292 73.7709 406.204 73.6666 406.094C73.5622 405.984 73.4788 405.857 73.4162 405.711C73.3535 405.564 73.3222 405.408 73.3222 405.241Z" fill="#415256"/>
<path d="M96.0195 400.733C96.2177 401.297 96.3899 401.847 96.536 402.384C96.5986 402.619 96.6612 402.864 96.7238 403.12C96.7864 403.371 96.8412 403.624 96.8882 403.879C96.9404 404.13 96.9821 404.378 97.0134 404.623C97.0447 404.863 97.0604 405.087 97.0604 405.296C97.0604 405.786 96.9925 406.264 96.8569 406.728C96.7264 407.198 96.5386 407.651 96.2934 408.09C96.0534 408.528 95.7664 408.948 95.4325 409.35C95.0986 409.757 94.7282 410.138 94.3212 410.492C93.9143 410.847 93.4786 411.176 93.0143 411.478C92.5499 411.786 92.0699 412.063 91.5743 412.308L90.1499 410.328C90.5256 410.14 90.9064 409.926 91.2925 409.686C91.6734 409.451 92.0386 409.198 92.3882 408.927C92.743 408.656 93.0717 408.371 93.3743 408.074C93.6821 407.777 93.9482 407.474 94.1725 407.166C94.4021 406.858 94.5821 406.545 94.7125 406.227C94.843 405.914 94.9082 405.606 94.9082 405.304C94.9082 405.084 94.8769 404.847 94.8143 404.591C94.7569 404.336 94.676 404.062 94.5717 403.77C94.4725 403.472 94.3525 403.159 94.2117 402.831C94.0708 402.497 93.9195 402.142 93.7577 401.766L96.0195 400.733Z" fill="#415256"/>
<path d="M102.104 406.47C101.463 406.47 100.912 406.389 100.453 406.227C99.9939 406.071 99.5973 405.828 99.2634 405.499C99.0547 405.291 98.893 405.071 98.7782 404.842C98.6686 404.612 98.5878 404.388 98.5356 404.169C98.4887 403.944 98.4599 403.733 98.4495 403.535C98.4443 403.337 98.4417 403.167 98.4417 403.026V402.909C98.4469 402.716 98.4521 402.439 98.4573 402.079C98.4678 401.714 98.473 401.286 98.473 400.796C98.473 400.305 98.4704 399.765 98.4652 399.176C98.4599 398.586 98.4443 397.999 98.4182 397.415C98.3973 396.825 98.3634 396.259 98.3165 395.717C98.2747 395.174 98.2147 394.702 98.1365 394.3L100.476 393.588C100.544 393.932 100.599 394.339 100.641 394.809C100.683 395.273 100.716 395.761 100.743 396.272C100.774 396.784 100.795 397.298 100.805 397.814C100.821 398.331 100.831 398.811 100.836 399.254C100.842 399.645 100.826 400.029 100.79 400.404C100.758 400.775 100.732 401.14 100.711 401.5C100.69 401.855 100.69 402.202 100.711 402.541C100.737 402.875 100.81 403.201 100.93 403.519C100.977 403.639 101.035 403.731 101.103 403.793C101.176 403.856 101.259 403.903 101.353 403.934C101.447 403.96 101.549 403.976 101.658 403.981C101.773 403.986 101.898 403.989 102.034 403.989H102.104C102.271 403.989 102.43 404.023 102.582 404.091C102.733 404.158 102.863 404.25 102.973 404.364C103.088 404.474 103.179 404.604 103.247 404.756C103.315 404.907 103.349 405.066 103.349 405.233C103.349 405.405 103.315 405.567 103.247 405.718C103.179 405.87 103.088 406 102.973 406.11C102.863 406.224 102.733 406.313 102.582 406.376C102.43 406.438 102.271 406.47 102.104 406.47Z" fill="#415256"/>
<path d="M100.691 405.241C100.691 405.064 100.722 404.899 100.785 404.748C100.848 404.597 100.939 404.466 101.059 404.357C101.174 404.242 101.312 404.153 101.474 404.091C101.63 404.028 101.808 403.997 102.006 403.997H102.444H102.828C103.109 403.997 103.42 403.994 103.759 403.989C104.098 403.978 104.424 403.952 104.737 403.911C105.055 403.864 105.34 403.796 105.59 403.707C105.846 403.618 106.031 403.496 106.146 403.339C106.302 403.099 106.381 402.825 106.381 402.518C106.381 402.413 106.37 402.309 106.349 402.204C106.334 402.095 106.313 401.983 106.287 401.868C106.25 401.738 106.172 401.581 106.052 401.398C105.937 401.211 105.788 401.007 105.606 400.788C105.423 400.564 105.214 400.329 104.98 400.084C104.745 399.833 104.494 399.58 104.228 399.324C103.962 399.064 103.683 398.805 103.391 398.55C103.099 398.294 102.807 398.046 102.514 397.806L102.757 395.678L109.331 392.751L110.278 394.848L105.081 397.258C105.337 397.436 105.601 397.647 105.872 397.892C106.143 398.138 106.407 398.406 106.662 398.698C106.918 398.985 107.158 399.291 107.382 399.614C107.607 399.938 107.802 400.269 107.969 400.608C108.136 400.947 108.267 401.289 108.361 401.633C108.46 401.978 108.507 402.314 108.501 402.643C108.496 403.034 108.444 403.399 108.345 403.738C108.246 404.072 108.123 404.372 107.977 404.638C107.434 405.609 106.54 406.201 105.293 406.415L105.301 406.407C105.16 406.433 105.027 406.451 104.901 406.462C104.776 406.472 104.654 406.478 104.534 406.478L102.006 406.47C101.813 406.47 101.635 406.438 101.474 406.376C101.312 406.313 101.174 406.224 101.059 406.11C100.944 406 100.855 405.872 100.793 405.726C100.725 405.575 100.691 405.413 100.691 405.241Z" fill="#415256"/>
<path d="M118.591 401.383C118.482 401.362 118.356 401.401 118.215 401.5C118.08 401.594 117.949 401.724 117.824 401.891C117.704 402.053 117.602 402.233 117.519 402.431C117.441 402.63 117.402 402.82 117.402 403.003C117.402 403.175 117.451 403.318 117.55 403.433C117.649 403.548 117.775 403.642 117.926 403.715C118.082 403.788 118.252 403.843 118.435 403.879C118.622 403.916 118.802 403.942 118.975 403.958H118.967C119.102 403.968 119.256 403.976 119.429 403.981C119.606 403.981 119.778 403.981 119.945 403.981C119.997 403.981 120.036 403.984 120.062 403.989C120.094 403.989 120.12 403.989 120.141 403.989C120.162 403.989 120.182 403.989 120.203 403.989C120.229 403.989 120.266 403.986 120.313 403.981C120.235 403.658 120.141 403.35 120.031 403.058C119.927 402.76 119.804 402.494 119.663 402.259C119.522 402.024 119.363 401.831 119.186 401.68C119.009 401.524 118.81 401.424 118.591 401.383ZM114.756 409.577C115.492 409.431 116.162 409.245 116.768 409.021C117.373 408.802 117.902 408.554 118.356 408.278C118.815 408.006 119.194 407.717 119.491 407.409C119.794 407.101 120.008 406.788 120.133 406.47C119.909 406.47 119.671 406.464 119.421 406.454C119.17 406.449 118.964 406.441 118.802 406.431C118.197 406.378 117.644 406.243 117.143 406.024C116.642 405.81 116.243 405.518 115.946 405.147C115.727 404.865 115.57 404.56 115.476 404.231C115.388 403.903 115.343 403.556 115.343 403.191C115.343 402.909 115.369 402.627 115.422 402.345C115.474 402.058 115.547 401.782 115.641 401.516C115.735 401.244 115.844 400.989 115.969 400.749C116.1 400.509 116.238 400.29 116.384 400.091C116.697 399.7 117.039 399.405 117.409 399.207C117.785 399.004 118.179 398.902 118.591 398.902C119.473 398.902 120.269 399.288 120.978 400.06C121.229 400.342 121.453 400.658 121.651 401.007C121.849 401.357 122.016 401.73 122.152 402.126C122.293 402.518 122.4 402.93 122.473 403.363C122.546 403.791 122.582 404.226 122.582 404.67C122.582 404.805 122.577 404.941 122.567 405.077C122.562 405.212 122.554 405.34 122.543 405.46C122.481 406.071 122.342 406.642 122.129 407.174C121.92 407.711 121.649 408.204 121.315 408.653C120.986 409.107 120.602 409.517 120.164 409.882C119.726 410.252 119.249 410.576 118.732 410.852C118.221 411.134 117.678 411.369 117.104 411.557C116.53 411.744 115.941 411.885 115.335 411.979L114.756 409.577Z" fill="#415256"/>
<path d="M145.023 406.47C144.163 406.47 143.432 406.329 142.832 406.047C142.237 405.765 141.752 405.296 141.376 404.638C140.636 405.27 139.738 405.737 138.684 406.039C137.636 406.342 136.41 406.493 135.006 406.493C134.176 406.488 133.389 406.433 132.643 406.329C131.902 406.23 131.226 406.078 130.616 405.875C130.005 405.666 129.47 405.408 129.011 405.1C128.552 404.787 128.192 404.419 127.931 403.997C127.77 403.72 127.652 403.402 127.579 403.042C127.506 402.677 127.483 402.283 127.509 401.86C127.535 401.432 127.616 400.981 127.751 400.506C127.892 400.026 128.093 399.531 128.354 399.019L130.216 400.099C130.112 400.303 130.016 400.501 129.927 400.694C129.838 400.887 129.77 401.088 129.723 401.297C129.676 401.505 129.653 401.73 129.653 401.97C129.658 402.204 129.7 402.465 129.778 402.752C129.909 402.977 130.141 403.167 130.475 403.324C130.814 403.48 131.221 403.608 131.696 403.707C132.17 403.806 132.692 403.879 133.261 403.926C133.83 403.973 134.411 403.997 135.006 403.997C135.554 403.997 136.073 403.978 136.563 403.942C137.054 403.9 137.505 403.838 137.917 403.754C138.335 403.665 138.71 403.553 139.044 403.418C139.383 403.277 139.673 403.107 139.913 402.909C140.132 402.731 140.312 402.536 140.453 402.322C140.594 402.108 140.714 401.884 140.813 401.649C140.912 401.409 140.993 401.158 141.056 400.898C141.123 400.637 141.189 400.373 141.251 400.107L143.443 400.663L143.122 402.322C143.075 402.562 143.085 402.784 143.153 402.987C143.226 403.191 143.349 403.368 143.521 403.519C143.693 403.665 143.912 403.783 144.178 403.871C144.444 403.955 144.747 403.997 145.086 403.997C145.258 403.997 145.42 404.028 145.571 404.091C145.723 404.153 145.853 404.242 145.963 404.357C146.077 404.466 146.166 404.597 146.229 404.748C146.296 404.899 146.33 405.061 146.33 405.233C146.33 405.405 146.296 405.567 146.229 405.718C146.166 405.87 146.077 406 145.963 406.11C145.853 406.224 145.723 406.313 145.571 406.376C145.42 406.438 145.258 406.47 145.086 406.47H145.023ZM135.288 407.072L137.025 408.81L135.288 410.547L133.55 408.81L135.288 407.072Z" fill="#415256"/>
<path d="M143.791 405.233C143.791 405.071 143.825 404.918 143.893 404.771C143.96 404.625 144.054 404.498 144.174 404.388C144.289 404.273 144.427 404.182 144.589 404.114C144.746 404.046 144.915 404.007 145.098 403.997C145.374 403.997 145.633 403.952 145.873 403.864C146.113 403.77 146.339 403.592 146.553 403.331C146.767 403.071 146.968 402.703 147.156 402.228C147.344 401.753 147.524 401.132 147.696 400.365L149.778 400.663C149.793 400.6 149.783 400.634 149.746 400.764C149.715 400.895 149.676 401.08 149.629 401.32C149.587 401.555 149.546 401.821 149.504 402.118C149.467 402.411 149.449 402.692 149.449 402.964C149.454 403.23 149.486 403.462 149.543 403.66C149.606 403.853 149.713 403.968 149.864 404.004C150.026 404.046 150.182 404.015 150.333 403.911C150.485 403.801 150.628 403.647 150.764 403.449C150.899 403.245 151.025 403.011 151.139 402.744C151.254 402.473 151.359 402.197 151.453 401.915C151.546 401.633 151.627 401.357 151.695 401.085C151.763 400.814 151.815 400.574 151.852 400.365L153.918 400.663C153.907 400.793 153.889 400.968 153.863 401.187C153.837 401.401 153.816 401.631 153.8 401.876C153.785 402.121 153.777 402.369 153.777 402.619C153.782 402.864 153.811 403.089 153.863 403.292C153.915 403.491 153.996 403.655 154.106 403.785C154.215 403.911 154.366 403.973 154.559 403.973C154.732 403.973 154.88 403.916 155.006 403.801C155.131 403.686 155.235 403.538 155.319 403.355C155.407 403.167 155.478 402.956 155.53 402.721C155.582 402.481 155.621 402.238 155.647 401.993C155.673 401.748 155.686 401.511 155.686 401.281C155.686 401.046 155.679 400.84 155.663 400.663L157.776 400.365L158.034 402.572C158.066 402.812 158.133 403.021 158.238 403.198C158.342 403.376 158.465 403.524 158.606 403.644C158.746 403.759 158.895 403.848 159.052 403.911C159.208 403.968 159.357 403.997 159.498 403.997H159.592C159.785 403.997 159.959 404.028 160.116 404.091C160.278 404.153 160.416 404.242 160.531 404.357C160.646 404.466 160.734 404.597 160.797 404.748C160.859 404.899 160.891 405.061 160.891 405.233C160.891 405.405 160.859 405.567 160.797 405.718C160.734 405.87 160.643 406 160.523 406.11C160.408 406.219 160.262 406.305 160.085 406.368C159.913 406.436 159.717 406.47 159.498 406.47C158.992 406.47 158.514 406.381 158.066 406.204C157.617 406.026 157.228 405.726 156.899 405.304C156.868 405.345 156.837 405.382 156.806 405.413C156.774 405.444 156.746 405.476 156.719 405.507V405.499C156.438 405.797 156.112 406.031 155.741 406.204C155.376 406.381 154.982 406.47 154.559 406.47C154.085 406.47 153.646 406.368 153.245 406.164C152.848 405.961 152.517 405.684 152.251 405.335C151.938 405.679 151.583 405.958 151.186 406.172C150.79 406.386 150.354 406.493 149.879 406.493C149.436 406.493 149.024 406.394 148.643 406.196C148.262 405.998 147.946 405.726 147.696 405.382C147.414 405.773 147.065 406.052 146.647 406.219C146.235 406.386 145.724 406.47 145.113 406.47C144.915 406.47 144.735 406.436 144.573 406.368C144.412 406.305 144.273 406.219 144.159 406.11C144.044 406 143.955 405.87 143.893 405.718C143.825 405.567 143.791 405.405 143.791 405.233Z" fill="#415256"/>
<path d="M158.189 405.241C158.189 405.064 158.22 404.899 158.283 404.748C158.346 404.597 158.437 404.466 158.557 404.357C158.672 404.242 158.81 404.153 158.972 404.091C159.128 404.028 159.306 403.997 159.504 403.997H159.942H160.326C160.607 403.997 160.918 403.994 161.257 403.989C161.596 403.978 161.922 403.952 162.235 403.911C162.553 403.864 162.838 403.796 163.088 403.707C163.344 403.618 163.529 403.496 163.644 403.339C163.8 403.099 163.879 402.825 163.879 402.518C163.879 402.413 163.868 402.309 163.847 402.204C163.832 402.095 163.811 401.983 163.785 401.868C163.748 401.738 163.67 401.581 163.55 401.398C163.435 401.211 163.286 401.007 163.104 400.788C162.921 400.564 162.713 400.329 162.478 400.084C162.243 399.833 161.993 399.58 161.726 399.324C161.46 399.064 161.181 398.805 160.889 398.55C160.597 398.294 160.305 398.046 160.013 397.806L160.255 395.678L166.829 392.751L167.776 394.848L162.579 397.258C162.835 397.436 163.099 397.647 163.37 397.892C163.641 398.138 163.905 398.406 164.16 398.698C164.416 398.985 164.656 399.291 164.88 399.614C165.105 399.938 165.3 400.269 165.467 400.608C165.634 400.947 165.765 401.289 165.859 401.633C165.958 401.978 166.005 402.314 166 402.643C165.994 403.034 165.942 403.399 165.843 403.738C165.744 404.072 165.621 404.372 165.475 404.638C164.933 405.609 164.038 406.201 162.791 406.415L162.799 406.407C162.658 406.433 162.525 406.451 162.399 406.462C162.274 406.472 162.152 406.478 162.032 406.478L159.504 406.47C159.311 406.47 159.133 406.438 158.972 406.376C158.81 406.313 158.672 406.224 158.557 406.11C158.442 406 158.353 405.872 158.291 405.726C158.223 405.575 158.189 405.413 158.189 405.241Z" fill="#415256"/>
<path d="M176.293 405.374C175.552 405.374 174.915 405.275 174.383 405.077C173.851 404.873 173.428 404.589 173.115 404.224C172.933 403.989 172.8 403.736 172.716 403.464C172.638 403.188 172.599 402.924 172.599 402.674C172.599 402.455 172.617 402.257 172.654 402.079C172.69 401.902 172.734 401.751 172.787 401.625C172.995 401.187 173.251 400.804 173.554 400.475C173.861 400.146 174.18 399.862 174.508 399.622C174.842 399.377 175.171 399.173 175.494 399.011C175.823 398.85 176.115 398.717 176.371 398.612C176.36 398.492 176.35 398.37 176.34 398.244C176.334 398.119 176.327 397.999 176.316 397.884L176.277 397.391L178.719 396.867C178.724 396.914 178.734 397.024 178.75 397.196C178.771 397.368 178.792 397.574 178.813 397.814C178.839 398.049 178.865 398.302 178.891 398.573C178.922 398.839 178.948 399.09 178.969 399.324C178.995 399.559 179.016 399.763 179.032 399.935C179.053 400.107 179.066 400.211 179.071 400.248C179.149 400.89 179.214 401.417 179.267 401.829C179.324 402.241 179.371 402.57 179.407 402.815C179.449 403.055 179.483 403.23 179.509 403.339C179.535 403.444 179.556 403.514 179.572 403.551C179.65 403.718 179.767 403.835 179.924 403.903C180.086 403.965 180.3 403.997 180.566 403.997C180.733 403.997 180.892 404.028 181.043 404.091C181.194 404.153 181.325 404.242 181.434 404.357C181.549 404.466 181.64 404.597 181.708 404.748C181.776 404.899 181.81 405.061 181.81 405.233C181.81 405.405 181.776 405.567 181.708 405.718C181.64 405.87 181.549 406 181.434 406.11C181.325 406.219 181.194 406.305 181.043 406.368C180.892 406.436 180.733 406.47 180.566 406.47C180.456 406.47 180.334 406.464 180.198 406.454C180.062 406.449 179.919 406.433 179.767 406.407C179.621 406.386 179.467 406.352 179.306 406.305C179.149 406.264 178.993 406.206 178.836 406.133C178.617 406.029 178.424 405.911 178.257 405.781C178.095 405.645 177.939 405.476 177.787 405.272C177.521 405.309 177.263 405.335 177.013 405.351C176.767 405.366 176.527 405.374 176.293 405.374ZM176.246 402.917C176.355 402.917 176.467 402.914 176.582 402.909C176.702 402.898 176.817 402.888 176.927 402.878C176.9 402.7 176.872 402.502 176.84 402.283C176.814 402.064 176.788 401.829 176.762 401.578L176.684 400.858C176.486 400.958 176.264 401.078 176.019 401.218C175.774 401.354 175.541 401.5 175.322 401.657C175.108 401.808 174.928 401.964 174.782 402.126C174.636 402.283 174.563 402.429 174.563 402.564C174.563 402.632 174.62 402.69 174.735 402.737C174.855 402.778 175.001 402.815 175.174 402.846C175.346 402.872 175.528 402.891 175.721 402.901C175.914 402.911 176.089 402.917 176.246 402.917Z" fill="#415256"/>
<path d="M189.529 403.997C189.696 403.997 189.855 404.031 190.007 404.098C190.158 404.166 190.288 404.258 190.398 404.372C190.513 404.482 190.604 404.612 190.672 404.764C190.74 404.915 190.774 405.077 190.774 405.249C190.774 405.421 190.74 405.583 190.672 405.734C190.604 405.88 190.513 406.008 190.398 406.118C190.288 406.232 190.158 406.321 190.007 406.384C189.855 406.446 189.696 406.478 189.529 406.478C189.117 406.478 188.715 406.464 188.324 406.438C187.933 406.412 187.555 406.363 187.189 406.29C186.829 406.217 186.488 406.115 186.164 405.984C185.841 405.849 185.541 405.674 185.264 405.46C184.956 405.648 184.609 405.807 184.223 405.938C183.837 406.068 183.435 406.172 183.018 406.251C182.601 406.334 182.181 406.391 181.758 406.423C181.335 406.459 180.939 406.478 180.568 406.478C180.402 406.478 180.242 406.446 180.091 406.384C179.94 406.321 179.807 406.232 179.692 406.118C179.577 406.008 179.488 405.88 179.426 405.734C179.358 405.583 179.324 405.421 179.324 405.249C179.324 405.077 179.358 404.915 179.426 404.764C179.488 404.612 179.577 404.482 179.692 404.372C179.807 404.258 179.94 404.166 180.091 404.098C180.242 404.031 180.402 403.997 180.568 403.997C180.751 403.997 180.942 403.991 181.14 403.981C181.343 403.971 181.547 403.958 181.75 403.942C181.954 403.921 182.155 403.895 182.353 403.864C182.551 403.832 182.739 403.796 182.916 403.754C182.859 403.702 182.807 403.652 182.76 403.605C182.713 403.553 182.663 403.501 182.611 403.449H182.619C182.337 403.167 182.048 402.878 181.75 402.58C181.458 402.283 181.132 401.97 180.772 401.641L180.897 399.81C181.205 399.538 181.523 399.309 181.852 399.121C182.181 398.928 182.504 398.769 182.822 398.644C183.146 398.518 183.454 398.422 183.746 398.354C184.043 398.286 184.309 398.239 184.544 398.213C184.659 398.203 184.782 398.195 184.912 398.19C185.042 398.179 185.17 398.174 185.295 398.174C185.702 398.174 186.12 398.216 186.548 398.299C186.981 398.383 187.372 398.498 187.722 398.644C188.024 398.784 188.277 398.944 188.481 399.121C188.684 399.298 188.846 399.476 188.966 399.653C189.086 399.831 189.172 400.003 189.224 400.17C189.282 400.337 189.313 400.478 189.318 400.592C189.334 400.827 189.302 401.085 189.224 401.367C189.146 401.644 189.031 401.928 188.88 402.22C188.734 402.507 188.559 402.791 188.355 403.073C188.152 403.35 187.933 403.605 187.698 403.84C188.251 403.944 188.862 403.997 189.529 403.997ZM185.295 400.608C185.17 400.608 185.011 400.618 184.818 400.639C184.625 400.655 184.424 400.678 184.215 400.71C184.007 400.741 183.803 400.778 183.605 400.819C183.412 400.861 183.248 400.905 183.112 400.952L185.264 402.791C185.415 402.682 185.588 402.546 185.781 402.384C185.979 402.223 186.172 402.056 186.36 401.884C186.548 401.706 186.717 401.531 186.868 401.359C187.025 401.187 187.14 401.036 187.213 400.905C187.093 400.853 186.952 400.809 186.79 400.772C186.628 400.731 186.459 400.699 186.282 400.678C186.109 400.652 185.937 400.634 185.765 400.624C185.593 400.613 185.436 400.608 185.295 400.608Z" fill="#415256"/>
<path d="M188.301 405.241C188.301 405.079 188.332 404.925 188.395 404.779C188.457 404.633 188.541 404.505 188.645 404.396C188.749 404.281 188.875 404.19 189.021 404.122C189.162 404.049 189.313 404.007 189.475 403.997C189.866 403.997 190.195 403.892 190.461 403.684C190.732 403.47 190.964 403.191 191.157 402.846C191.35 402.502 191.515 402.111 191.65 401.672C191.786 401.229 191.914 400.778 192.034 400.318L194.116 400.694C194.074 400.877 194.022 401.091 193.959 401.336C193.902 401.576 193.847 401.826 193.795 402.087C193.748 402.348 193.709 402.604 193.677 402.854C193.646 403.099 193.638 403.316 193.654 403.504C193.675 403.691 193.724 403.84 193.803 403.95C193.881 404.054 194.001 404.093 194.163 404.067C194.371 404.051 194.559 403.978 194.726 403.848C194.898 403.718 195.052 403.551 195.188 403.347C195.323 403.144 195.443 402.914 195.548 402.658C195.652 402.403 195.741 402.139 195.814 401.868C195.892 401.597 195.955 401.328 196.002 401.062C196.054 400.796 196.096 400.553 196.127 400.334L198.115 400.671C198.109 400.827 198.091 401.02 198.06 401.25C198.029 401.479 198 401.722 197.974 401.978C197.948 402.228 197.935 402.481 197.935 402.737C197.935 402.987 197.963 403.214 198.021 403.418C198.078 403.616 198.172 403.778 198.303 403.903C198.438 404.028 198.626 404.091 198.866 404.091C199.012 404.091 199.161 404.067 199.312 404.02C199.463 403.968 199.599 403.898 199.719 403.809C199.839 403.715 199.936 403.605 200.009 403.48C200.087 403.355 200.126 403.214 200.126 403.058C200.126 402.786 200.082 402.489 199.993 402.165C199.904 401.837 199.797 401.513 199.672 401.195C199.547 400.871 199.414 400.566 199.273 400.279C199.137 399.992 199.023 399.75 198.929 399.551L200.869 398.464C200.901 398.531 200.956 398.651 201.034 398.824C201.112 398.991 201.201 399.194 201.3 399.434C201.399 399.674 201.501 399.945 201.605 400.248C201.715 400.545 201.814 400.856 201.902 401.179C201.991 401.503 202.064 401.834 202.122 402.173C202.179 402.512 202.208 402.841 202.208 403.159C202.208 403.681 202.135 404.151 201.989 404.568C201.848 404.985 201.631 405.34 201.339 405.632C201.052 405.924 200.689 406.151 200.251 406.313C199.818 406.475 199.309 406.558 198.725 406.564C198.443 406.564 198.188 406.535 197.958 406.478C197.729 406.425 197.522 406.35 197.34 406.251C197.157 406.157 196.993 406.044 196.847 405.914C196.706 405.784 196.581 405.645 196.471 405.499C196.346 405.661 196.21 405.807 196.064 405.938C195.923 406.063 195.759 406.17 195.571 406.258C195.389 406.352 195.183 406.425 194.953 406.478C194.723 406.53 194.463 406.558 194.17 406.564C193.915 406.569 193.682 406.545 193.474 406.493C193.27 406.446 193.083 406.376 192.91 406.282C192.738 406.188 192.582 406.076 192.441 405.945C192.305 405.81 192.177 405.661 192.057 405.499C191.948 405.635 191.823 405.763 191.682 405.883C191.541 405.998 191.374 406.099 191.181 406.188C190.988 406.277 190.763 406.347 190.508 406.399C190.252 406.451 189.955 406.478 189.616 406.478H189.475C189.313 406.467 189.162 406.428 189.021 406.36C188.875 406.292 188.749 406.204 188.645 406.094C188.541 405.984 188.457 405.857 188.395 405.711C188.332 405.564 188.301 405.408 188.301 405.241Z" fill="#415256"/>
<path d="M202.489 409.577C203.224 409.431 203.89 409.245 204.484 409.021C205.084 408.802 205.609 408.554 206.057 408.278C206.511 408.006 206.884 407.717 207.177 407.409C207.469 407.101 207.677 406.788 207.803 406.47C207.578 406.47 207.351 406.464 207.122 406.454C206.892 406.449 206.697 406.441 206.535 406.431C205.93 406.378 205.377 406.243 204.876 406.024C204.375 405.81 203.976 405.518 203.678 405.147C203.459 404.865 203.303 404.56 203.209 404.231C203.12 403.903 203.076 403.556 203.076 403.191C203.076 402.909 203.102 402.627 203.154 402.345C203.206 402.058 203.279 401.782 203.373 401.516C203.467 401.244 203.577 400.989 203.702 400.749C203.832 400.509 203.97 400.29 204.117 400.091C204.43 399.7 204.771 399.405 205.142 399.207C205.517 399.004 205.911 398.902 206.324 398.902C207.205 398.902 208.001 399.288 208.71 400.06C208.93 400.305 209.128 400.577 209.305 400.874C209.483 401.171 209.639 401.49 209.775 401.829C209.91 402.163 210.02 402.512 210.104 402.878C210.192 403.243 210.252 403.616 210.284 403.997H210.432C210.604 403.997 210.766 404.028 210.917 404.091C211.069 404.153 211.199 404.242 211.309 404.357C211.424 404.466 211.515 404.597 211.583 404.748C211.65 404.899 211.684 405.064 211.684 405.241C211.684 405.408 211.65 405.567 211.583 405.718C211.515 405.864 211.424 405.992 211.309 406.102C211.199 406.217 211.069 406.305 210.917 406.368C210.766 406.436 210.604 406.47 210.432 406.47H210.088C209.884 407.237 209.558 407.931 209.11 408.551C208.666 409.172 208.134 409.715 207.513 410.179C206.897 410.644 206.209 411.027 205.447 411.33C204.691 411.632 203.897 411.849 203.068 411.979L202.489 409.577ZM206.324 401.383C206.209 401.383 206.081 401.435 205.94 401.539C205.804 401.638 205.677 401.766 205.557 401.923C205.437 402.079 205.335 402.254 205.251 402.447C205.173 402.64 205.134 402.828 205.134 403.011C205.134 403.188 205.184 403.334 205.283 403.449C205.382 403.564 205.507 403.658 205.658 403.731C205.815 403.798 205.984 403.851 206.167 403.887C206.35 403.918 206.527 403.942 206.699 403.958C206.793 403.968 206.895 403.976 207.004 403.981C207.119 403.981 207.237 403.981 207.357 403.981C207.477 403.981 207.594 403.984 207.709 403.989C207.829 403.989 207.938 403.991 208.037 403.997C208.001 403.741 207.944 403.501 207.865 403.277C207.787 403.052 207.698 402.844 207.599 402.651C207.505 402.458 207.401 402.285 207.286 402.134C207.177 401.978 207.07 401.842 206.965 401.727C206.929 401.691 206.882 401.651 206.824 401.61C206.772 401.568 206.717 401.531 206.66 401.5C206.603 401.464 206.543 401.435 206.48 401.414C206.423 401.393 206.37 401.383 206.324 401.383Z" fill="#415256"/>
<path d="M216.742 396.257L215.239 397.767L213.752 396.28L212.281 397.751L210.762 396.241L212.265 394.731L213.752 396.218L215.223 394.746L216.742 396.257ZM208.908 405.233C208.908 405.061 208.942 404.899 209.009 404.748C209.072 404.597 209.158 404.466 209.268 404.357C209.377 404.242 209.508 404.153 209.659 404.091C209.81 404.028 209.972 403.997 210.144 403.997H211.013H211.388C211.623 403.997 211.882 403.986 212.163 403.965C212.445 403.944 212.716 403.911 212.977 403.864C213.238 403.817 213.473 403.754 213.682 403.676C213.895 403.592 214.052 403.488 214.151 403.363C214.208 403.274 214.237 403.154 214.237 403.003C214.237 402.778 214.182 402.512 214.073 402.204C213.968 401.897 213.843 401.584 213.697 401.265C213.551 400.947 213.4 400.642 213.243 400.35C213.092 400.058 212.969 399.815 212.875 399.622L215.106 398.526C215.268 398.808 215.424 399.142 215.575 399.528C215.727 399.909 215.862 400.303 215.982 400.71C216.102 401.111 216.199 401.508 216.272 401.899C216.345 402.285 216.382 402.622 216.382 402.909C216.382 403.436 216.288 403.918 216.1 404.357C215.881 404.847 215.581 405.254 215.2 405.578C214.819 405.896 214.362 406.131 213.83 406.282C213.674 406.324 213.478 406.358 213.243 406.384C213.008 406.41 212.771 406.428 212.531 406.438C212.291 406.454 212.064 406.462 211.85 406.462C211.636 406.467 211.469 406.47 211.349 406.47H210.215H210.144C209.972 406.47 209.81 406.438 209.659 406.376C209.508 406.313 209.377 406.224 209.268 406.11C209.158 406 209.072 405.87 209.009 405.718C208.942 405.567 208.908 405.405 208.908 405.233Z" fill="#415256"/>
<path d="M239.252 403.997C239.424 403.997 239.586 404.028 239.738 404.091C239.889 404.153 240.019 404.242 240.129 404.357C240.244 404.466 240.332 404.597 240.395 404.748C240.458 404.899 240.489 405.061 240.489 405.233C240.489 405.405 240.458 405.567 240.395 405.718C240.332 405.87 240.244 406 240.129 406.11C240.019 406.219 239.889 406.305 239.738 406.368C239.586 406.436 239.424 406.47 239.252 406.47C238.423 406.47 237.658 406.329 236.959 406.047C236.265 405.771 235.66 405.356 235.144 404.803C234.956 405.001 234.744 405.171 234.51 405.311C234.28 405.452 234.04 405.578 233.79 405.687C233.498 405.818 233.179 405.932 232.835 406.031C232.496 406.131 232.115 406.211 231.692 406.274C231.275 406.342 230.811 406.391 230.299 406.423C229.788 406.454 229.217 406.47 228.585 406.47C228.1 406.464 227.649 406.446 227.231 406.415C226.819 406.384 226.431 406.339 226.065 406.282C225.705 406.23 225.366 406.162 225.048 406.078C224.73 405.995 224.424 405.898 224.132 405.789C222.948 405.33 222.134 404.657 221.691 403.77V403.778C221.44 403.292 221.315 402.755 221.315 402.165C221.315 401.91 221.346 401.633 221.409 401.336C221.471 401.038 221.552 400.749 221.651 400.467C221.704 400.326 221.751 400.209 221.792 400.115C221.834 400.021 221.876 399.932 221.918 399.849C221.964 399.765 222.014 399.682 222.066 399.598C222.124 399.51 222.197 399.405 222.285 399.285L224.132 400.631C224.064 400.746 223.989 400.871 223.905 401.007C223.827 401.143 223.751 401.286 223.678 401.438C223.605 401.584 223.543 401.735 223.491 401.891C223.444 402.043 223.42 402.191 223.42 402.338C223.42 402.557 223.509 402.75 223.686 402.917C223.864 403.084 224.101 403.23 224.398 403.355C224.696 403.475 225.04 403.577 225.431 403.66C225.828 403.738 226.245 403.804 226.684 403.856C227.122 403.903 227.565 403.937 228.014 403.958C228.468 403.978 228.904 403.989 229.321 403.989C229.723 403.989 230.117 403.973 230.503 403.942C230.889 403.911 231.249 403.871 231.583 403.824C231.917 403.772 232.211 403.718 232.467 403.66C232.728 403.598 232.934 403.54 233.085 403.488H233.078C233.469 403.337 233.751 403.164 233.923 402.971C234.095 402.778 234.181 402.572 234.181 402.353C234.181 402.118 234.121 401.865 234.001 401.594C233.881 401.323 233.722 401.046 233.524 400.764C233.331 400.483 233.109 400.204 232.858 399.927C232.608 399.645 232.35 399.379 232.084 399.129C231.823 398.873 231.564 398.638 231.309 398.424C231.053 398.205 230.824 398.018 230.62 397.861L230.871 395.724L238.094 392.696L238.971 394.871L232.968 397.305C233.344 397.603 233.688 397.908 234.001 398.221C234.314 398.529 234.601 398.847 234.862 399.176C235.123 399.504 235.358 399.846 235.566 400.201C235.78 400.551 235.976 400.918 236.153 401.304V401.297C236.231 401.521 236.328 401.751 236.443 401.985C236.558 402.22 236.691 402.447 236.842 402.666C236.993 402.885 237.16 403.089 237.343 403.277C237.525 403.459 237.726 403.616 237.945 403.746H237.938C238.11 403.824 238.29 403.884 238.478 403.926C238.671 403.968 238.908 403.991 239.19 403.997H239.252ZM237.773 391.671L230.753 394.723L230.816 393.549L237.343 390.739L237.773 391.671Z" fill="#415256"/>
<path d="M237.93 405.233C237.93 405.061 237.961 404.899 238.023 404.748C238.086 404.597 238.175 404.466 238.29 404.357C238.399 404.247 238.53 404.161 238.681 404.098C238.832 404.031 238.994 403.997 239.166 403.997H239.299C240.024 403.997 240.572 403.882 240.943 403.652C241.313 403.418 241.498 403.063 241.498 402.588C241.498 402.494 241.498 402.411 241.498 402.338C241.503 402.264 241.496 402.171 241.475 402.056C241.459 401.936 241.425 401.782 241.373 401.594C241.326 401.401 241.253 401.138 241.154 400.804L243.384 400.264C243.494 400.577 243.59 400.929 243.674 401.32C243.757 401.706 243.799 402.129 243.799 402.588C243.799 402.739 243.812 402.898 243.838 403.065C243.87 403.227 243.917 403.378 243.979 403.519C244.047 403.655 244.136 403.77 244.245 403.864C244.36 403.952 244.503 403.997 244.676 403.997C244.843 403.997 245.002 404.031 245.153 404.098C245.304 404.161 245.435 404.247 245.544 404.357C245.659 404.466 245.75 404.597 245.818 404.748C245.886 404.899 245.92 405.061 245.92 405.233C245.92 405.405 245.886 405.567 245.818 405.718C245.756 405.87 245.667 406 245.552 406.11C245.437 406.224 245.304 406.313 245.153 406.376C245.007 406.438 244.85 406.47 244.684 406.47C244.183 406.47 243.755 406.397 243.4 406.251C243.045 406.11 242.74 405.919 242.484 405.679C242.109 405.951 241.66 406.149 241.138 406.274C240.622 406.404 240.009 406.47 239.299 406.47H239.166C238.994 406.47 238.832 406.438 238.681 406.376C238.53 406.313 238.399 406.224 238.29 406.11C238.175 406 238.086 405.87 238.023 405.718C237.961 405.567 237.93 405.405 237.93 405.233ZM242.21 395.505L243.948 397.243L242.21 398.98L240.473 397.243L242.21 395.505Z" fill="#415256"/>
<path d="M250.626 409.044L249.123 410.555L247.636 409.068L246.165 410.539L244.647 409.029L246.149 407.518L247.636 409.005L249.107 407.534L250.626 409.044ZM243.058 405.233C243.058 405.061 243.092 404.899 243.16 404.748C243.222 404.597 243.308 404.466 243.418 404.357C243.527 404.242 243.658 404.153 243.809 404.091C243.96 404.028 244.122 403.997 244.294 403.997H245.163H245.539C245.773 403.997 246.032 403.986 246.313 403.965C246.595 403.944 246.867 403.911 247.127 403.864C247.388 403.817 247.623 403.754 247.832 403.676C248.046 403.592 248.202 403.488 248.301 403.363C248.359 403.274 248.387 403.154 248.387 403.003C248.387 402.778 248.333 402.512 248.223 402.204C248.119 401.897 247.993 401.584 247.847 401.265C247.701 400.947 247.55 400.642 247.393 400.35C247.242 400.058 247.12 399.815 247.026 399.622L249.256 398.526C249.418 398.808 249.574 399.142 249.726 399.528C249.877 399.909 250.013 400.303 250.133 400.71C250.253 401.111 250.349 401.508 250.422 401.899C250.495 402.285 250.532 402.622 250.532 402.909C250.532 403.436 250.438 403.918 250.25 404.357C250.031 404.847 249.731 405.254 249.35 405.578C248.969 405.896 248.513 406.131 247.98 406.282C247.824 406.324 247.628 406.358 247.393 406.384C247.159 406.41 246.921 406.428 246.681 406.438C246.441 406.454 246.214 406.462 246 406.462C245.787 406.467 245.62 406.47 245.5 406.47H244.365H244.294C244.122 406.47 243.96 406.438 243.809 406.376C243.658 406.313 243.527 406.224 243.418 406.11C243.308 406 243.222 405.87 243.16 405.718C243.092 405.567 243.058 405.405 243.058 405.233Z" fill="#415256"/>
<path d="M255.123 406.47C254.439 406.47 253.769 406.339 253.111 406.078C252.459 405.818 251.854 405.398 251.296 404.818L252.712 402.823C252.968 403.058 253.216 403.251 253.456 403.402C253.696 403.548 253.925 403.663 254.144 403.746C254.363 403.83 254.57 403.887 254.763 403.918C254.961 403.95 255.146 403.965 255.318 403.965C255.396 403.965 255.485 403.963 255.584 403.958C255.683 403.952 255.783 403.944 255.882 403.934C255.981 403.918 256.077 403.9 256.171 403.879C256.265 403.858 256.351 403.832 256.43 403.801C256.701 403.686 256.915 403.571 257.071 403.457C256.873 402.977 256.656 402.478 256.422 401.962C256.192 401.44 255.96 400.918 255.725 400.397C255.49 399.87 255.258 399.348 255.029 398.831C254.799 398.315 254.585 397.819 254.387 397.344L256.672 396.39L257.369 398.08C257.593 398.633 257.862 399.291 258.175 400.052C258.488 400.809 258.848 401.667 259.255 402.627C259.349 402.857 259.435 403.058 259.513 403.23C259.591 403.402 259.683 403.545 259.787 403.66C259.896 403.775 260.024 403.861 260.17 403.918C260.322 403.971 260.515 403.997 260.75 403.997C260.917 403.997 261.076 404.028 261.227 404.091C261.378 404.153 261.509 404.242 261.618 404.357C261.733 404.466 261.824 404.597 261.892 404.748C261.96 404.899 261.994 405.061 261.994 405.233C261.994 405.405 261.96 405.567 261.892 405.718C261.824 405.87 261.733 406 261.618 406.11C261.509 406.224 261.378 406.313 261.227 406.376C261.076 406.438 260.917 406.47 260.75 406.47C260.431 406.47 260.15 406.449 259.904 406.407C259.664 406.365 259.448 406.305 259.255 406.227C259.067 406.154 258.897 406.065 258.746 405.961C258.6 405.851 258.462 405.731 258.331 405.601C258.19 405.695 258.042 405.786 257.885 405.875C257.729 405.958 257.549 406.042 257.345 406.125C257.032 406.245 256.693 406.331 256.328 406.384C255.968 406.441 255.566 406.47 255.123 406.47Z" fill="#415256"/>
<path d="M259.445 405.233C259.445 405.061 259.479 404.899 259.547 404.748C259.609 404.597 259.696 404.466 259.805 404.357C259.915 404.247 260.045 404.161 260.196 404.098C260.348 404.031 260.509 403.997 260.682 403.997H260.752H261.253H261.245C261.422 404.038 261.587 404.02 261.738 403.942C261.889 403.858 262.02 403.741 262.129 403.59C262.239 403.433 262.325 403.256 262.388 403.058C262.45 402.854 262.482 402.653 262.482 402.455C262.492 402.011 262.487 401.445 262.466 400.757C262.445 400.068 262.429 399.264 262.419 398.346C262.409 397.506 262.396 396.737 262.38 396.038C262.369 395.338 262.343 394.663 262.302 394.011L264.736 393.564C264.777 393.898 264.809 394.261 264.829 394.652C264.856 395.038 264.874 395.443 264.884 395.865C264.9 396.288 264.91 396.724 264.916 397.172C264.921 397.621 264.923 398.072 264.923 398.526C264.923 399.241 264.916 399.958 264.9 400.678C264.889 401.038 264.882 401.414 264.876 401.805C264.871 402.197 264.869 402.58 264.869 402.956C264.869 403.044 264.879 403.154 264.9 403.284C264.921 403.415 264.968 403.54 265.041 403.66H265.033C265.096 403.754 265.187 403.835 265.307 403.903C265.427 403.965 265.612 403.997 265.862 403.997C266.035 403.997 266.196 404.031 266.348 404.098C266.499 404.161 266.629 404.247 266.739 404.357C266.854 404.466 266.945 404.597 267.013 404.748C267.081 404.899 267.115 405.061 267.115 405.233C267.115 405.405 267.081 405.567 267.013 405.718C266.945 405.87 266.854 406 266.739 406.11C266.629 406.224 266.499 406.313 266.348 406.376C266.196 406.438 266.035 406.47 265.862 406.47C265.398 406.48 264.986 406.399 264.626 406.227C264.266 406.06 263.961 405.854 263.71 405.609C263.413 405.88 263.082 406.089 262.716 406.235C262.351 406.381 261.981 406.459 261.605 406.47H260.752H260.682C260.509 406.47 260.348 406.438 260.196 406.376C260.045 406.313 259.915 406.224 259.805 406.11C259.696 406 259.609 405.87 259.547 405.718C259.479 405.567 259.445 405.405 259.445 405.233Z" fill="#415256"/>
<path d="M264.552 405.225C264.552 405.053 264.586 404.894 264.654 404.748C264.717 404.597 264.803 404.466 264.912 404.357C265.022 404.242 265.152 404.153 265.304 404.091C265.455 404.028 265.617 403.997 265.789 403.997H265.859C265.938 403.997 266.011 403.997 266.079 403.997C266.152 403.997 266.232 403.994 266.321 403.989C266.415 403.984 266.525 403.978 266.65 403.973C266.78 403.968 266.942 403.96 267.135 403.95C266.952 403.637 266.814 403.305 266.72 402.956C266.626 402.601 266.579 402.244 266.579 401.884C266.579 401.612 266.606 401.341 266.658 401.07C266.71 400.798 266.788 400.54 266.893 400.295C266.997 400.044 267.127 399.81 267.284 399.591C267.44 399.366 267.626 399.163 267.839 398.98L267.432 398.753L268.943 396.531C269.167 396.687 269.436 396.846 269.749 397.008C270.062 397.17 270.391 397.331 270.735 397.493C271.079 397.65 271.424 397.804 271.768 397.955C272.118 398.101 272.439 398.239 272.731 398.37C273.226 398.599 273.665 398.803 274.046 398.98C274.432 399.152 274.779 399.324 275.086 399.497C275.394 399.664 275.671 399.841 275.916 400.029C276.161 400.217 276.391 400.436 276.605 400.686C276.876 401.031 277.072 401.406 277.192 401.813C277.312 402.22 277.372 402.614 277.372 402.995C277.372 403.579 277.22 404.132 276.918 404.654C276.62 405.171 276.179 405.604 275.595 405.953C275.433 406.047 275.232 406.128 274.992 406.196C274.758 406.264 274.51 406.318 274.249 406.36C273.993 406.407 273.74 406.441 273.49 406.462C273.239 406.483 273.02 406.493 272.833 406.493C272.613 406.493 272.376 406.483 272.12 406.462C271.865 406.446 271.606 406.418 271.346 406.376C271.09 406.339 270.839 406.29 270.594 406.227C270.349 406.164 270.125 406.091 269.921 406.008C269.671 406.081 269.381 406.146 269.052 406.204C268.729 406.261 268.387 406.308 268.027 406.344C267.667 406.386 267.302 406.418 266.932 406.438C266.561 406.459 266.204 406.47 265.859 406.47H265.789C265.617 406.47 265.455 406.436 265.304 406.368C265.152 406.305 265.022 406.217 264.912 406.102C264.803 405.992 264.717 405.862 264.654 405.711C264.586 405.559 264.552 405.398 264.552 405.225ZM270.242 400.162C270.075 400.136 269.895 400.185 269.702 400.311C269.514 400.436 269.342 400.598 269.186 400.796C269.029 400.994 268.904 401.213 268.81 401.453C268.716 401.688 268.679 401.907 268.7 402.111V402.103C268.716 402.238 268.768 402.379 268.857 402.525C268.946 402.666 269.05 402.804 269.17 402.94C269.295 403.071 269.428 403.188 269.569 403.292C269.71 403.391 269.84 403.464 269.96 403.511C270.159 403.491 270.352 403.444 270.539 403.371C270.732 403.298 270.905 403.188 271.056 403.042C271.207 402.896 271.33 402.708 271.424 402.478C271.518 402.249 271.565 401.967 271.565 401.633C271.565 401.461 271.515 401.291 271.416 401.124C271.322 400.958 271.207 400.806 271.072 400.671C270.936 400.53 270.79 400.415 270.633 400.326C270.482 400.232 270.352 400.178 270.242 400.162ZM273.623 401.461C273.623 401.68 273.597 401.91 273.545 402.15C273.493 402.39 273.422 402.627 273.333 402.862C273.245 403.097 273.143 403.326 273.028 403.551C272.919 403.77 272.801 403.973 272.676 404.161H272.746C273.127 404.161 273.477 404.148 273.795 404.122C274.119 404.091 274.398 404.033 274.632 403.95C274.867 403.861 275.052 403.741 275.188 403.59C275.329 403.433 275.412 403.227 275.439 402.971C275.449 402.846 275.397 402.711 275.282 402.564C275.167 402.413 275.019 402.264 274.836 402.118C274.659 401.967 274.46 401.821 274.241 401.68C274.022 401.539 273.816 401.414 273.623 401.304V401.461Z" fill="#415256"/>
<path d="M292.702 399.035C292.859 398.993 293.018 398.964 293.18 398.949C293.341 398.933 293.5 398.925 293.657 398.925C294.006 398.925 294.366 398.978 294.737 399.082C295.113 399.181 295.488 399.33 295.864 399.528L294.995 401.821C294.745 401.711 294.507 401.628 294.283 401.571C294.059 401.508 293.847 401.477 293.649 401.477C293.513 401.477 293.36 401.492 293.187 401.524C293.02 401.539 292.84 401.589 292.647 401.672C292.454 401.751 292.261 401.852 292.068 401.978C291.88 402.103 291.698 402.249 291.52 402.416C291.343 402.578 291.184 402.75 291.043 402.932C290.907 403.115 290.795 403.305 290.706 403.504C290.618 403.697 290.568 403.884 290.558 404.067C290.547 404.213 290.589 404.333 290.683 404.427C290.777 404.516 290.902 404.594 291.059 404.662C291.215 404.724 291.393 404.782 291.591 404.834C291.789 404.881 291.99 404.936 292.193 404.998L292.42 405.053C292.754 405.131 293.086 405.22 293.414 405.319C293.748 405.418 294.048 405.559 294.314 405.742C294.58 405.919 294.794 406.154 294.956 406.446C295.123 406.738 295.206 407.117 295.206 407.581C295.206 407.675 295.201 407.771 295.191 407.871C295.186 407.975 295.173 408.082 295.152 408.191C295.1 408.473 295.006 408.747 294.87 409.013C294.734 409.284 294.562 409.54 294.353 409.78C294.15 410.025 293.913 410.252 293.641 410.461C293.375 410.675 293.083 410.865 292.765 411.032C292.165 411.33 291.479 411.559 290.706 411.721C289.934 411.888 289.105 411.971 288.218 411.971C287.153 411.971 286.214 411.815 285.4 411.502C284.586 411.194 283.911 410.743 283.373 410.148C282.966 409.663 282.666 409.131 282.473 408.551C282.286 407.972 282.192 407.367 282.192 406.736C282.192 406.6 282.197 406.464 282.207 406.329C282.218 406.193 282.228 406.065 282.239 405.945C282.26 405.57 282.301 405.202 282.364 404.842C282.426 404.477 282.497 404.135 282.575 403.817C282.659 403.493 282.747 403.196 282.841 402.924C282.935 402.648 283.021 402.408 283.1 402.204C283.178 401.996 283.243 401.831 283.295 401.711C283.353 401.586 283.386 401.511 283.397 401.484L285.361 402.306C285.231 402.614 285.106 402.917 284.986 403.214C284.871 403.506 284.766 403.809 284.673 404.122C284.584 404.43 284.508 404.756 284.446 405.1C284.388 405.444 284.352 405.82 284.336 406.227C284.331 406.284 284.326 406.347 284.32 406.415C284.315 406.483 284.313 406.543 284.313 406.595C284.313 406.924 284.362 407.247 284.461 407.565C284.566 407.884 284.735 408.171 284.97 408.426C285.111 408.588 285.293 408.729 285.518 408.849C285.747 408.974 286.006 409.078 286.293 409.162C286.58 409.251 286.887 409.316 287.216 409.358C287.545 409.404 287.879 409.428 288.218 409.428C288.88 409.428 289.499 409.381 290.073 409.287C290.652 409.198 291.16 409.078 291.599 408.927C292.037 408.781 292.389 408.609 292.655 408.411C292.926 408.218 293.083 408.019 293.125 407.816C293.114 407.816 293.083 407.811 293.031 407.8C292.979 407.79 292.911 407.774 292.827 407.753C292.749 407.738 292.658 407.717 292.553 407.691C292.454 407.67 292.35 407.646 292.24 407.62L291.818 407.526C291.353 407.411 290.915 407.278 290.503 407.127C290.096 406.981 289.739 406.785 289.431 406.54C289.128 406.3 288.886 405.998 288.703 405.632C288.526 405.262 288.437 404.795 288.437 404.231C288.463 403.631 288.588 403.047 288.813 402.478C289.037 401.91 289.34 401.391 289.72 400.921C290.101 400.451 290.545 400.052 291.051 399.724C291.562 399.39 292.115 399.16 292.71 399.035H292.702Z" fill="#415256"/>
<path d="M301.437 400.733C301.636 401.297 301.808 401.847 301.954 402.384C302.017 402.619 302.079 402.864 302.142 403.12C302.204 403.371 302.259 403.624 302.306 403.879C302.358 404.13 302.4 404.378 302.431 404.623C302.463 404.863 302.478 405.087 302.478 405.296C302.478 405.786 302.41 406.264 302.275 406.728C302.144 407.198 301.957 407.651 301.711 408.09C301.471 408.528 301.184 408.948 300.85 409.35C300.517 409.757 300.146 410.138 299.739 410.492C299.332 410.847 298.897 411.176 298.432 411.478C297.968 411.786 297.488 412.063 296.992 412.308L295.568 410.328C295.944 410.14 296.324 409.926 296.71 409.686C297.091 409.451 297.457 409.198 297.806 408.927C298.161 408.656 298.49 408.371 298.792 408.074C299.1 407.777 299.366 407.474 299.59 407.166C299.82 406.858 300 406.545 300.13 406.227C300.261 405.914 300.326 405.606 300.326 405.304C300.326 405.084 300.295 404.847 300.232 404.591C300.175 404.336 300.094 404.062 299.99 403.77C299.89 403.472 299.77 403.159 299.63 402.831C299.489 402.497 299.337 402.142 299.176 401.766L301.437 400.733Z" fill="#415256"/>
<path d="M307.522 406.47C306.881 406.47 306.33 406.389 305.871 406.227C305.412 406.071 305.015 405.828 304.681 405.499C304.473 405.291 304.311 405.071 304.196 404.842C304.087 404.612 304.006 404.388 303.954 404.169C303.907 403.944 303.878 403.733 303.867 403.535C303.862 403.337 303.86 403.167 303.86 403.026V402.909C303.865 402.716 303.87 402.439 303.875 402.079C303.886 401.714 303.891 401.286 303.891 400.796C303.891 400.305 303.888 399.765 303.883 399.176C303.878 398.586 303.862 397.999 303.836 397.415C303.815 396.825 303.781 396.259 303.734 395.717C303.693 395.174 303.633 394.702 303.554 394.3L305.894 393.588C305.962 393.932 306.017 394.339 306.059 394.809C306.101 395.273 306.134 395.761 306.161 396.272C306.192 396.784 306.213 397.298 306.223 397.814C306.239 398.331 306.249 398.811 306.254 399.254C306.26 399.645 306.244 400.029 306.207 400.404C306.176 400.775 306.15 401.14 306.129 401.5C306.108 401.855 306.108 402.202 306.129 402.541C306.155 402.875 306.228 403.201 306.348 403.519C306.395 403.639 306.453 403.731 306.521 403.793C306.594 403.856 306.677 403.903 306.771 403.934C306.865 403.96 306.967 403.976 307.076 403.981C307.191 403.986 307.316 403.989 307.452 403.989H307.522C307.689 403.989 307.848 404.023 308 404.091C308.151 404.158 308.281 404.25 308.391 404.364C308.506 404.474 308.597 404.604 308.665 404.756C308.733 404.907 308.767 405.066 308.767 405.233C308.767 405.405 308.733 405.567 308.665 405.718C308.597 405.87 308.506 406 308.391 406.11C308.281 406.224 308.151 406.313 308 406.376C307.848 406.438 307.689 406.47 307.522 406.47Z" fill="#415256"/>
<path d="M306.266 405.241C306.266 405.074 306.299 404.915 306.367 404.764C306.43 404.612 306.519 404.482 306.633 404.372C306.743 404.258 306.873 404.166 307.025 404.098C307.176 404.031 307.338 403.997 307.51 403.997H308.942C309.516 403.997 310.134 403.942 310.797 403.832C311.459 403.718 312.122 403.569 312.785 403.386C313.452 403.204 314.097 403 314.718 402.776C315.344 402.546 315.905 402.314 316.4 402.079C316.077 402.001 315.717 401.891 315.32 401.751C314.924 401.61 314.522 401.471 314.115 401.336C313.708 401.2 313.312 401.085 312.926 400.991C312.545 400.892 312.203 400.845 311.9 400.851C311.707 400.856 311.519 400.898 311.337 400.976C311.159 401.049 310.992 401.143 310.836 401.258C310.685 401.367 310.546 401.487 310.421 401.618C310.301 401.743 310.197 401.863 310.108 401.978C310.019 402.087 309.949 402.181 309.897 402.259C309.85 402.332 309.826 402.369 309.826 402.369L307.972 401.304C308.18 400.918 308.431 400.548 308.723 400.193C309.015 399.833 309.333 399.518 309.678 399.246C310.022 398.97 310.382 398.751 310.758 398.589C311.139 398.427 311.519 398.349 311.9 398.354C312.182 398.359 312.461 398.393 312.738 398.456C313.019 398.518 313.301 398.599 313.583 398.698C313.865 398.792 314.149 398.904 314.436 399.035C314.723 399.16 315.012 399.291 315.305 399.426C315.602 399.572 315.931 399.716 316.291 399.857C316.656 399.998 317.034 400.123 317.426 400.232C317.822 400.342 318.224 400.431 318.631 400.498C319.043 400.566 319.445 400.6 319.836 400.6L319.429 402.909C319.309 402.961 319.173 403.024 319.022 403.097C318.876 403.164 318.745 403.227 318.631 403.284L318.427 403.386C318.547 403.527 318.699 403.639 318.881 403.723C319.069 403.806 319.259 403.869 319.452 403.911C319.651 403.947 319.839 403.971 320.016 403.981C320.199 403.991 320.342 403.997 320.446 403.997H320.556C320.728 403.997 320.89 404.031 321.041 404.098C321.192 404.166 321.323 404.258 321.432 404.372C321.547 404.482 321.636 404.612 321.699 404.764C321.766 404.915 321.8 405.074 321.8 405.241C321.8 405.413 321.766 405.575 321.699 405.726C321.636 405.878 321.547 406.008 321.432 406.118C321.323 406.227 321.192 406.313 321.041 406.376C320.89 406.438 320.728 406.47 320.556 406.47H320.446C319.946 406.47 319.473 406.425 319.03 406.337C318.592 406.248 318.19 406.12 317.825 405.953C317.465 405.781 317.144 405.575 316.862 405.335C316.58 405.09 316.348 404.813 316.166 404.505C315.649 404.756 315.112 405.001 314.553 405.241C313.995 405.476 313.416 405.684 312.816 405.867C312.216 406.05 311.592 406.196 310.946 406.305C310.304 406.42 309.636 406.478 308.942 406.478L307.51 406.47C307.338 406.47 307.176 406.438 307.025 406.376C306.873 406.313 306.743 406.227 306.633 406.118C306.519 406.008 306.43 405.878 306.367 405.726C306.299 405.575 306.266 405.413 306.266 405.241ZM313.638 407.08L315.375 408.818L313.638 410.555L311.9 408.818L313.638 407.08Z" fill="#415256"/>
<path d="M326.833 396.257L325.331 397.767L323.844 396.28L322.372 397.751L320.854 396.241L322.357 394.731L323.844 396.218L325.315 394.746L326.833 396.257ZM318.999 405.233C318.999 405.061 319.033 404.899 319.101 404.748C319.164 404.597 319.25 404.466 319.359 404.357C319.469 404.242 319.599 404.153 319.751 404.091C319.902 404.028 320.064 403.997 320.236 403.997H321.105H321.48C321.715 403.997 321.973 403.986 322.255 403.965C322.537 403.944 322.808 403.911 323.069 403.864C323.33 403.817 323.565 403.754 323.773 403.676C323.987 403.592 324.144 403.488 324.243 403.363C324.3 403.274 324.329 403.154 324.329 403.003C324.329 402.778 324.274 402.512 324.165 402.204C324.06 401.897 323.935 401.584 323.789 401.265C323.643 400.947 323.492 400.642 323.335 400.35C323.184 400.058 323.061 399.815 322.967 399.622L325.198 398.526C325.359 398.808 325.516 399.142 325.667 399.528C325.819 399.909 325.954 400.303 326.074 400.71C326.194 401.111 326.291 401.508 326.364 401.899C326.437 402.285 326.473 402.622 326.473 402.909C326.473 403.436 326.379 403.918 326.192 404.357C325.972 404.847 325.672 405.254 325.292 405.578C324.911 405.896 324.454 406.131 323.922 406.282C323.766 406.324 323.57 406.358 323.335 406.384C323.1 406.41 322.863 406.428 322.623 406.438C322.383 406.454 322.156 406.462 321.942 406.462C321.728 406.467 321.561 406.47 321.441 406.47H320.306H320.236C320.064 406.47 319.902 406.438 319.751 406.376C319.599 406.313 319.469 406.224 319.359 406.11C319.25 406 319.164 405.87 319.101 405.718C319.033 405.567 318.999 405.405 318.999 405.233Z" fill="#415256"/>
<path d="M350.745 398.213C350.776 398.276 350.831 398.391 350.909 398.558C350.993 398.719 351.087 398.918 351.191 399.152C351.295 399.382 351.405 399.64 351.52 399.927C351.635 400.214 351.739 400.517 351.833 400.835C351.927 401.148 352.002 401.469 352.06 401.798C352.122 402.121 352.154 402.439 352.154 402.752C352.148 403.269 352.07 403.751 351.919 404.2C351.773 404.649 351.556 405.04 351.269 405.374C350.982 405.703 350.628 405.964 350.205 406.157C349.782 406.35 349.295 406.446 348.742 406.446C348.262 406.446 347.868 406.365 347.56 406.204C347.257 406.042 347.007 405.82 346.808 405.538C346.699 405.679 346.582 405.807 346.456 405.922C346.331 406.031 346.182 406.125 346.01 406.204C345.843 406.287 345.645 406.35 345.415 406.391C345.191 406.433 344.922 406.454 344.609 406.454C344.39 406.454 344.189 406.438 344.007 406.407C343.824 406.376 343.657 406.337 343.506 406.29C343.501 406.9 343.407 407.456 343.224 407.957C343.047 408.458 342.802 408.906 342.488 409.303C342.181 409.699 341.818 410.044 341.401 410.336C340.983 410.628 340.535 410.868 340.055 411.056C339.575 411.249 339.071 411.392 338.544 411.486C338.022 411.58 337.503 411.627 336.987 411.627C336.188 411.627 335.45 411.494 334.772 411.228C334.094 410.967 333.507 410.597 333.011 410.117C332.521 409.642 332.137 409.068 331.861 408.395C331.584 407.727 331.446 406.989 331.446 406.18C331.462 405.711 331.524 405.231 331.634 404.74C331.748 404.25 331.892 403.77 332.064 403.3C332.242 402.831 332.437 402.384 332.651 401.962C332.87 401.534 333.092 401.151 333.316 400.811L335.022 402.126C334.835 402.434 334.652 402.76 334.475 403.104C334.297 403.444 334.141 403.793 334.005 404.153C333.869 404.508 333.76 404.863 333.676 405.218C333.593 405.572 333.551 405.914 333.551 406.243C333.535 406.639 333.614 407.012 333.786 407.362C333.963 407.711 334.206 408.017 334.514 408.278C334.827 408.544 335.192 408.752 335.609 408.904C336.032 409.055 336.481 409.131 336.955 409.131C337.493 409.131 337.988 409.081 338.442 408.982C338.902 408.883 339.306 408.744 339.655 408.567C340.01 408.395 340.308 408.184 340.548 407.933C340.788 407.688 340.96 407.417 341.064 407.119L341.056 407.127C341.187 406.699 341.252 406.258 341.252 405.804C341.252 405.455 341.202 405.1 341.103 404.74C341.004 404.38 340.876 404.018 340.72 403.652C340.563 403.282 340.388 402.911 340.195 402.541C340.008 402.165 339.822 401.79 339.64 401.414L341.784 400.209C341.92 400.517 342.055 400.827 342.191 401.14C342.327 401.453 342.462 401.753 342.598 402.04C342.739 402.322 342.882 402.585 343.028 402.831C343.175 403.076 343.326 403.287 343.482 403.464C343.639 403.637 343.801 403.767 343.968 403.856C344.14 403.944 344.322 403.976 344.515 403.95C344.735 403.918 344.912 403.843 345.048 403.723C345.183 403.598 345.285 403.444 345.353 403.261C345.426 403.078 345.47 402.875 345.486 402.651C345.507 402.421 345.512 402.189 345.501 401.954C345.491 401.719 345.473 401.487 345.447 401.258C345.426 401.028 345.408 400.817 345.392 400.624L347.552 400.334C347.588 400.496 347.62 400.691 347.646 400.921C347.672 401.145 347.701 401.383 347.732 401.633C347.768 401.884 347.813 402.137 347.865 402.392C347.917 402.648 347.988 402.885 348.076 403.104C348.165 403.324 348.275 403.514 348.405 403.676C348.535 403.838 348.7 403.952 348.898 404.02C349.06 404.02 349.211 403.991 349.352 403.934C349.493 403.871 349.615 403.783 349.72 403.668C349.824 403.553 349.905 403.412 349.962 403.245C350.025 403.073 350.056 402.875 350.056 402.651C350.056 402.463 350.02 402.246 349.947 402.001C349.879 401.751 349.785 401.482 349.665 401.195C349.545 400.908 349.404 400.608 349.242 400.295C349.086 399.977 348.919 399.656 348.742 399.332L350.745 398.213ZM349.055 397.047L347.552 398.558L346.065 397.071L344.594 398.542L343.075 397.031L344.578 395.521L346.065 397.008L347.536 395.537L349.055 397.047ZM344.672 394.778L346.065 393.384L347.466 394.785L346.073 396.178L344.672 394.778Z" fill="#415256"/>
<path d="M352.676 409.577C353.412 409.431 354.077 409.245 354.672 409.021C355.272 408.802 355.796 408.554 356.245 408.278C356.699 408.006 357.072 407.717 357.364 407.409C357.656 407.101 357.865 406.788 357.99 406.47C357.766 406.47 357.539 406.464 357.309 406.454C357.08 406.449 356.884 406.441 356.722 406.431C356.117 406.378 355.564 406.243 355.063 406.024C354.562 405.81 354.163 405.518 353.866 405.147C353.647 404.865 353.49 404.56 353.396 404.231C353.308 403.903 353.263 403.556 353.263 403.191C353.263 402.909 353.289 402.627 353.341 402.345C353.394 402.058 353.467 401.782 353.561 401.516C353.655 401.244 353.764 400.989 353.889 400.749C354.02 400.509 354.158 400.29 354.304 400.091C354.617 399.7 354.959 399.405 355.329 399.207C355.705 399.004 356.099 398.902 356.511 398.902C357.393 398.902 358.188 399.288 358.898 400.06C359.117 400.305 359.315 400.577 359.493 400.874C359.67 401.171 359.827 401.49 359.962 401.829C360.098 402.163 360.208 402.512 360.291 402.878C360.38 403.243 360.44 403.616 360.471 403.997H360.62C360.792 403.997 360.954 404.028 361.105 404.091C361.256 404.153 361.387 404.242 361.496 404.357C361.611 404.466 361.702 404.597 361.77 404.748C361.838 404.899 361.872 405.064 361.872 405.241C361.872 405.408 361.838 405.567 361.77 405.718C361.702 405.864 361.611 405.992 361.496 406.102C361.387 406.217 361.256 406.305 361.105 406.368C360.954 406.436 360.792 406.47 360.62 406.47H360.275C360.072 407.237 359.746 407.931 359.297 408.551C358.854 409.172 358.321 409.715 357.701 410.179C357.085 410.644 356.396 411.027 355.635 411.33C354.878 411.632 354.085 411.849 353.255 411.979L352.676 409.577ZM356.511 401.383C356.396 401.383 356.268 401.435 356.128 401.539C355.992 401.638 355.864 401.766 355.744 401.923C355.624 402.079 355.522 402.254 355.439 402.447C355.361 402.64 355.321 402.828 355.321 403.011C355.321 403.188 355.371 403.334 355.47 403.449C355.569 403.564 355.695 403.658 355.846 403.731C356.002 403.798 356.172 403.851 356.355 403.887C356.537 403.918 356.715 403.942 356.887 403.958C356.981 403.968 357.082 403.976 357.192 403.981C357.307 403.981 357.424 403.981 357.544 403.981C357.664 403.981 357.781 403.984 357.896 403.989C358.016 403.989 358.126 403.991 358.225 403.997C358.188 403.741 358.131 403.501 358.053 403.277C357.975 403.052 357.886 402.844 357.787 402.651C357.693 402.458 357.588 402.285 357.474 402.134C357.364 401.978 357.257 401.842 357.153 401.727C357.116 401.691 357.069 401.651 357.012 401.61C356.96 401.568 356.905 401.531 356.848 401.5C356.79 401.464 356.73 401.435 356.668 401.414C356.61 401.393 356.558 401.383 356.511 401.383Z" fill="#415256"/>
<path d="M359.299 405.225C359.299 405.053 359.332 404.894 359.4 404.748C359.463 404.597 359.549 404.466 359.659 404.357C359.768 404.242 359.899 404.153 360.05 404.091C360.201 404.028 360.363 403.997 360.535 403.997H360.606C360.684 403.997 360.757 403.997 360.825 403.997C360.898 403.997 360.979 403.994 361.067 403.989C361.161 403.984 361.271 403.978 361.396 403.973C361.526 403.968 361.688 403.96 361.881 403.95C361.699 403.637 361.56 403.305 361.466 402.956C361.373 402.601 361.326 402.244 361.326 401.884C361.326 401.612 361.352 401.341 361.404 401.07C361.456 400.798 361.534 400.54 361.639 400.295C361.743 400.044 361.873 399.81 362.03 399.591C362.186 399.366 362.372 399.163 362.586 398.98L362.179 398.753L363.689 396.531C363.913 396.687 364.182 396.846 364.495 397.008C364.808 397.17 365.137 397.331 365.481 397.493C365.826 397.65 366.17 397.804 366.514 397.955C366.864 398.101 367.185 398.239 367.477 398.37C367.973 398.599 368.411 398.803 368.792 398.98C369.178 399.152 369.525 399.324 369.832 399.497C370.14 399.664 370.417 399.841 370.662 400.029C370.907 400.217 371.137 400.436 371.351 400.686C371.622 401.031 371.818 401.406 371.938 401.813C372.058 402.22 372.118 402.614 372.118 402.995C372.118 403.579 371.966 404.132 371.664 404.654C371.366 405.171 370.926 405.604 370.341 405.953C370.179 406.047 369.979 406.128 369.739 406.196C369.504 406.264 369.256 406.318 368.995 406.36C368.739 406.407 368.486 406.441 368.236 406.462C367.986 406.483 367.766 406.493 367.579 406.493C367.359 406.493 367.122 406.483 366.866 406.462C366.611 406.446 366.353 406.418 366.092 406.376C365.836 406.339 365.586 406.29 365.34 406.227C365.095 406.164 364.871 406.091 364.667 406.008C364.417 406.081 364.127 406.146 363.799 406.204C363.475 406.261 363.133 406.308 362.773 406.344C362.413 406.386 362.048 406.418 361.678 406.438C361.307 406.459 360.95 406.47 360.606 406.47H360.535C360.363 406.47 360.201 406.436 360.05 406.368C359.899 406.305 359.768 406.217 359.659 406.102C359.549 405.992 359.463 405.862 359.4 405.711C359.332 405.559 359.299 405.398 359.299 405.225ZM364.988 400.162C364.821 400.136 364.641 400.185 364.448 400.311C364.26 400.436 364.088 400.598 363.932 400.796C363.775 400.994 363.65 401.213 363.556 401.453C363.462 401.688 363.426 401.907 363.446 402.111V402.103C363.462 402.238 363.514 402.379 363.603 402.525C363.692 402.666 363.796 402.804 363.916 402.94C364.041 403.071 364.174 403.188 364.315 403.292C364.456 403.391 364.586 403.464 364.706 403.511C364.905 403.491 365.098 403.444 365.286 403.371C365.479 403.298 365.651 403.188 365.802 403.042C365.953 402.896 366.076 402.708 366.17 402.478C366.264 402.249 366.311 401.967 366.311 401.633C366.311 401.461 366.261 401.291 366.162 401.124C366.068 400.958 365.953 400.806 365.818 400.671C365.682 400.53 365.536 400.415 365.379 400.326C365.228 400.232 365.098 400.178 364.988 400.162ZM368.369 401.461C368.369 401.68 368.343 401.91 368.291 402.15C368.239 402.39 368.168 402.627 368.079 402.862C367.991 403.097 367.889 403.326 367.774 403.551C367.665 403.77 367.547 403.973 367.422 404.161H367.492C367.873 404.161 368.223 404.148 368.541 404.122C368.865 404.091 369.144 404.033 369.379 403.95C369.613 403.861 369.799 403.741 369.934 403.59C370.075 403.433 370.159 403.227 370.185 402.971C370.195 402.846 370.143 402.711 370.028 402.564C369.913 402.413 369.765 402.264 369.582 402.118C369.405 401.967 369.206 401.821 368.987 401.68C368.768 401.539 368.562 401.414 368.369 401.304V401.461Z" fill="#415256"/>
<path d="M381.078 405.374C380.337 405.374 379.7 405.275 379.168 405.077C378.636 404.873 378.213 404.589 377.9 404.224C377.718 403.989 377.585 403.736 377.501 403.464C377.423 403.188 377.384 402.924 377.384 402.674C377.384 402.455 377.402 402.257 377.439 402.079C377.475 401.902 377.52 401.751 377.572 401.625C377.78 401.187 378.036 400.804 378.339 400.475C378.646 400.146 378.965 399.862 379.293 399.622C379.627 399.377 379.956 399.173 380.28 399.011C380.608 398.85 380.9 398.717 381.156 398.612C381.146 398.492 381.135 398.37 381.125 398.244C381.12 398.119 381.112 397.999 381.101 397.884L381.062 397.391L383.504 396.867C383.509 396.914 383.52 397.024 383.535 397.196C383.556 397.368 383.577 397.574 383.598 397.814C383.624 398.049 383.65 398.302 383.676 398.573C383.707 398.839 383.733 399.09 383.754 399.324C383.78 399.559 383.801 399.763 383.817 399.935C383.838 400.107 383.851 400.211 383.856 400.248C383.934 400.89 384 401.417 384.052 401.829C384.109 402.241 384.156 402.57 384.193 402.815C384.234 403.055 384.268 403.23 384.294 403.339C384.32 403.444 384.341 403.514 384.357 403.551C384.435 403.718 384.553 403.835 384.709 403.903C384.871 403.965 385.085 403.997 385.351 403.997C385.518 403.997 385.677 404.028 385.828 404.091C385.98 404.153 386.11 404.242 386.22 404.357C386.334 404.466 386.426 404.597 386.493 404.748C386.561 404.899 386.595 405.061 386.595 405.233C386.595 405.405 386.561 405.567 386.493 405.718C386.426 405.87 386.334 406 386.22 406.11C386.11 406.219 385.98 406.305 385.828 406.368C385.677 406.436 385.518 406.47 385.351 406.47C385.241 406.47 385.119 406.464 384.983 406.454C384.847 406.449 384.704 406.433 384.553 406.407C384.406 406.386 384.253 406.352 384.091 406.305C383.934 406.264 383.778 406.206 383.621 406.133C383.402 406.029 383.209 405.911 383.042 405.781C382.88 405.645 382.724 405.476 382.573 405.272C382.306 405.309 382.048 405.335 381.798 405.351C381.553 405.366 381.313 405.374 381.078 405.374ZM381.031 402.917C381.14 402.917 381.253 402.914 381.367 402.909C381.487 402.898 381.602 402.888 381.712 402.878C381.686 402.7 381.657 402.502 381.626 402.283C381.6 402.064 381.573 401.829 381.547 401.578L381.469 400.858C381.271 400.958 381.049 401.078 380.804 401.218C380.559 401.354 380.326 401.5 380.107 401.657C379.893 401.808 379.713 401.964 379.567 402.126C379.421 402.283 379.348 402.429 379.348 402.564C379.348 402.632 379.406 402.69 379.52 402.737C379.64 402.778 379.786 402.815 379.959 402.846C380.131 402.872 380.313 402.891 380.507 402.901C380.7 402.911 380.874 402.917 381.031 402.917Z" fill="#415256"/>
<path d="M384.055 405.233C384.055 405.061 384.088 404.899 384.156 404.748C384.219 404.597 384.305 404.466 384.414 404.357C384.524 404.242 384.654 404.153 384.806 404.091C384.957 404.028 385.119 403.997 385.291 403.997H386.097H386.449C386.642 403.997 386.843 403.989 387.052 403.973C387.266 403.958 387.464 403.926 387.647 403.879C387.835 403.832 387.999 403.767 388.14 403.684C388.286 403.6 388.39 403.488 388.453 403.347C388.495 403.253 388.515 403.112 388.515 402.924C388.515 402.799 388.479 402.611 388.406 402.361C388.333 402.111 388.236 401.834 388.116 401.531C387.996 401.224 387.861 400.903 387.709 400.569C387.558 400.235 387.404 399.919 387.248 399.622L389.486 398.511C389.632 398.839 389.775 399.189 389.916 399.559C390.062 399.93 390.193 400.305 390.308 400.686C390.422 401.067 390.514 401.448 390.581 401.829C390.654 402.204 390.691 402.564 390.691 402.909C390.691 403.436 390.597 403.918 390.409 404.357C390.19 404.847 389.89 405.254 389.509 405.578C389.128 405.896 388.672 406.131 388.14 406.282C387.827 406.371 387.527 406.423 387.24 406.438C386.953 406.459 386.684 406.47 386.434 406.47H385.361H385.291C385.119 406.47 384.957 406.438 384.806 406.376C384.654 406.313 384.524 406.224 384.414 406.11C384.305 406 384.219 405.87 384.156 405.718C384.088 405.567 384.055 405.405 384.055 405.233ZM387.928 394.089L389.666 395.826L387.928 397.564L386.191 395.826L387.928 394.089Z" fill="#415256"/>
<path d="M395.764 406.47C395.123 406.47 394.572 406.389 394.113 406.227C393.654 406.071 393.258 405.828 392.924 405.499C392.715 405.291 392.553 405.071 392.438 404.842C392.329 404.612 392.248 404.388 392.196 404.169C392.149 403.944 392.12 403.733 392.11 403.535C392.104 403.337 392.102 403.167 392.102 403.026V402.909C392.107 402.716 392.112 402.439 392.117 402.079C392.128 401.714 392.133 401.286 392.133 400.796C392.133 400.305 392.131 399.765 392.125 399.176C392.12 398.586 392.104 397.999 392.078 397.415C392.057 396.825 392.024 396.259 391.977 395.717C391.935 395.174 391.875 394.702 391.797 394.3L394.137 393.588C394.204 393.932 394.259 394.339 394.301 394.809C394.343 395.273 394.377 395.761 394.403 396.272C394.434 396.784 394.455 397.298 394.465 397.814C394.481 398.331 394.491 398.811 394.497 399.254C394.502 399.645 394.486 400.029 394.45 400.404C394.418 400.775 394.392 401.14 394.371 401.5C394.351 401.855 394.351 402.202 394.371 402.541C394.397 402.875 394.471 403.201 394.591 403.519C394.638 403.639 394.695 403.731 394.763 403.793C394.836 403.856 394.919 403.903 395.013 403.934C395.107 403.96 395.209 403.976 395.318 403.981C395.433 403.986 395.558 403.989 395.694 403.989H395.764C395.931 403.989 396.091 404.023 396.242 404.091C396.393 404.158 396.524 404.25 396.633 404.364C396.748 404.474 396.839 404.604 396.907 404.756C396.975 404.907 397.009 405.066 397.009 405.233C397.009 405.405 396.975 405.567 396.907 405.718C396.839 405.87 396.748 406 396.633 406.11C396.524 406.224 396.393 406.313 396.242 406.376C396.091 406.438 395.931 406.47 395.764 406.47Z" fill="#415256"/>
<path d="M394.523 405.233C394.523 405.061 394.555 404.902 394.617 404.756C394.68 404.61 394.766 404.482 394.876 404.372C394.985 404.263 395.116 404.177 395.267 404.114C395.413 404.046 395.572 404.007 395.744 403.997C396.094 403.997 396.396 403.929 396.652 403.793C396.913 403.658 397.142 403.48 397.341 403.261C397.539 403.042 397.716 402.797 397.873 402.525C398.029 402.254 398.178 401.983 398.319 401.711V401.719C398.455 401.438 398.598 401.158 398.749 400.882C398.906 400.605 399.076 400.35 399.258 400.115C399.54 399.786 399.855 399.533 400.205 399.356C400.555 399.173 400.928 399.082 401.324 399.082C401.794 399.082 402.219 399.178 402.6 399.371C402.986 399.564 403.336 399.841 403.649 400.201C403.883 400.483 404.074 400.806 404.22 401.171C404.366 401.531 404.462 401.915 404.509 402.322V402.306C404.541 402.51 404.556 402.742 404.556 403.003C404.556 403.284 404.53 403.561 404.478 403.832C404.431 404.098 404.363 404.351 404.275 404.591C404.102 405.03 403.855 405.398 403.531 405.695C403.213 405.987 402.866 406.188 402.49 406.298C402.365 406.334 402.24 406.358 402.115 406.368C401.995 406.384 401.867 406.391 401.731 406.391C401.496 406.391 401.246 406.363 400.98 406.305C400.719 406.248 400.461 406.17 400.205 406.071C400.101 406.024 399.983 405.969 399.853 405.906C399.722 405.838 399.584 405.765 399.438 405.687C399.297 405.609 399.156 405.528 399.016 405.444C398.875 405.361 398.744 405.28 398.624 405.202C398.415 405.395 398.207 405.57 397.998 405.726C397.789 405.883 397.57 406.016 397.341 406.125C397.111 406.235 396.866 406.318 396.605 406.376C396.344 406.438 396.06 406.47 395.752 406.47C395.58 406.47 395.421 406.436 395.275 406.368C395.123 406.305 394.993 406.219 394.883 406.11C394.769 406 394.68 405.87 394.617 405.718C394.555 405.567 394.523 405.405 394.523 405.233ZM400.072 403.175C400.234 403.279 400.424 403.381 400.643 403.48C400.868 403.579 401.089 403.668 401.309 403.746C401.528 403.824 401.729 403.89 401.911 403.942C402.099 403.989 402.24 404.012 402.334 404.012C402.355 404.012 402.376 404.012 402.396 404.012C402.422 404.007 402.449 404.002 402.475 403.997C402.537 403.981 402.597 403.903 402.655 403.762C402.717 403.616 402.741 403.418 402.725 403.167C402.725 403 402.678 402.818 402.584 402.619C402.49 402.416 402.368 402.228 402.216 402.056C402.065 401.878 401.89 401.732 401.692 401.618C401.499 401.498 401.301 401.438 401.097 401.438C401.024 401.438 400.93 401.542 400.816 401.751C400.701 401.959 400.534 402.27 400.315 402.682V402.674L400.072 403.175Z" fill="#415256"/>
<path d="M409.563 406.47C408.922 406.47 408.371 406.389 407.912 406.227C407.453 406.071 407.056 405.828 406.722 405.499C406.514 405.291 406.352 405.071 406.237 404.842C406.128 404.612 406.047 404.388 405.995 404.169C405.948 403.944 405.919 403.733 405.909 403.535C405.903 403.337 405.901 403.167 405.901 403.026V402.909C405.906 402.716 405.911 402.439 405.916 402.079C405.927 401.714 405.932 401.286 405.932 400.796C405.932 400.305 405.929 399.765 405.924 399.176C405.919 398.586 405.903 397.999 405.877 397.415C405.856 396.825 405.822 396.259 405.775 395.717C405.734 395.174 405.674 394.702 405.595 394.3L407.935 393.588C408.003 393.932 408.058 394.339 408.1 394.809C408.142 395.273 408.175 395.761 408.202 396.272C408.233 396.784 408.254 397.298 408.264 397.814C408.28 398.331 408.29 398.811 408.295 399.254C408.301 399.645 408.285 400.029 408.249 400.404C408.217 400.775 408.191 401.14 408.17 401.5C408.149 401.855 408.149 402.202 408.17 402.541C408.196 402.875 408.269 403.201 408.389 403.519C408.436 403.639 408.494 403.731 408.562 403.793C408.635 403.856 408.718 403.903 408.812 403.934C408.906 403.96 409.008 403.976 409.117 403.981C409.232 403.986 409.357 403.989 409.493 403.989H409.563C409.73 403.989 409.889 404.023 410.041 404.091C410.192 404.158 410.322 404.25 410.432 404.364C410.547 404.474 410.638 404.604 410.706 404.756C410.774 404.907 410.808 405.066 410.808 405.233C410.808 405.405 410.774 405.567 410.706 405.718C410.638 405.87 410.547 406 410.432 406.11C410.322 406.224 410.192 406.313 410.041 406.376C409.889 406.438 409.73 406.47 409.563 406.47Z" fill="#415256"/>
<path d="M408.361 405.241C408.361 405.079 408.393 404.925 408.455 404.779C408.518 404.633 408.601 404.505 408.706 404.396C408.81 404.281 408.935 404.19 409.081 404.122C409.222 404.049 409.373 404.007 409.535 403.997C409.927 403.997 410.255 403.892 410.521 403.684C410.793 403.47 411.025 403.191 411.218 402.846C411.411 402.502 411.575 402.111 411.711 401.672C411.847 401.229 411.974 400.778 412.094 400.318L414.176 400.694C414.134 400.877 414.082 401.091 414.02 401.336C413.962 401.576 413.907 401.826 413.855 402.087C413.808 402.348 413.769 402.604 413.738 402.854C413.707 403.099 413.699 403.316 413.714 403.504C413.735 403.691 413.785 403.84 413.863 403.95C413.941 404.054 414.061 404.093 414.223 404.067C414.432 404.051 414.62 403.978 414.787 403.848C414.959 403.718 415.113 403.551 415.248 403.347C415.384 403.144 415.504 402.914 415.608 402.658C415.713 402.403 415.801 402.139 415.874 401.868C415.953 401.597 416.015 401.328 416.062 401.062C416.114 400.796 416.156 400.553 416.187 400.334L418.175 400.671C418.17 400.827 418.152 401.02 418.12 401.25C418.089 401.479 418.06 401.722 418.034 401.978C418.008 402.228 417.995 402.481 417.995 402.737C417.995 402.987 418.024 403.214 418.081 403.418C418.139 403.616 418.233 403.778 418.363 403.903C418.499 404.028 418.687 404.091 418.927 404.091C419.073 404.091 419.221 404.067 419.373 404.02C419.524 403.968 419.66 403.898 419.78 403.809C419.9 403.715 419.996 403.605 420.069 403.48C420.147 403.355 420.187 403.214 420.187 403.058C420.187 402.786 420.142 402.489 420.053 402.165C419.965 401.837 419.858 401.513 419.733 401.195C419.607 400.871 419.474 400.566 419.333 400.279C419.198 399.992 419.083 399.75 418.989 399.551L420.93 398.464C420.961 398.531 421.016 398.651 421.094 398.824C421.173 398.991 421.261 399.194 421.36 399.434C421.46 399.674 421.561 399.945 421.666 400.248C421.775 400.545 421.874 400.856 421.963 401.179C422.052 401.503 422.125 401.834 422.182 402.173C422.24 402.512 422.268 402.841 422.268 403.159C422.268 403.681 422.195 404.151 422.049 404.568C421.908 404.985 421.692 405.34 421.4 405.632C421.113 405.924 420.75 406.151 420.312 406.313C419.879 406.475 419.37 406.558 418.786 406.564C418.504 406.564 418.248 406.535 418.019 406.478C417.789 406.425 417.583 406.35 417.4 406.251C417.218 406.157 417.053 406.044 416.907 405.914C416.767 405.784 416.641 405.645 416.532 405.499C416.407 405.661 416.271 405.807 416.125 405.938C415.984 406.063 415.82 406.17 415.632 406.258C415.449 406.352 415.243 406.425 415.013 406.478C414.784 406.53 414.523 406.558 414.231 406.564C413.975 406.569 413.743 406.545 413.534 406.493C413.331 406.446 413.143 406.376 412.971 406.282C412.799 406.188 412.642 406.076 412.501 405.945C412.366 405.81 412.238 405.661 412.118 405.499C412.008 405.635 411.883 405.763 411.742 405.883C411.601 405.998 411.434 406.099 411.241 406.188C411.048 406.277 410.824 406.347 410.568 406.399C410.313 406.451 410.015 406.478 409.676 406.478H409.535C409.373 406.467 409.222 406.428 409.081 406.36C408.935 406.292 408.81 406.204 408.706 406.094C408.601 405.984 408.518 405.857 408.455 405.711C408.393 405.564 408.361 405.408 408.361 405.241Z" fill="#415256"/>
<line x1="224.5" y1="430.788" x2="263.5" y2="430.788" stroke="black" stroke-linecap="round"/>
<path d="M379.1 337.462H107.052C104.948 337.462 103.371 339.215 103.371 341.143C103.371 343.247 105.124 344.825 107.052 344.825H378.925C381.029 344.825 382.606 343.072 382.606 341.143C382.781 339.215 381.029 337.462 379.1 337.462Z" fill="#C1E3ED"/>
<path d="M330.02 153.409C337.206 127.116 352.457 103.276 373.141 85.7476L374.017 86.7993C353.508 104.153 338.609 127.992 331.597 153.76L330.02 153.409Z" fill="#3FCAEC"/>
<path d="M333.876 116.774C331.071 111.866 333.7 105.205 333.7 105.205C333.7 105.205 340.712 106.432 343.517 111.34C346.321 116.248 343.692 122.909 343.692 122.909C343.692 122.909 336.505 121.506 333.876 116.774Z" fill="#3FCAEC"/>
<path d="M355.437 112.917C361.046 112.567 365.954 117.825 365.954 117.825C365.954 117.825 361.747 123.61 356.138 123.96C350.528 124.311 345.62 119.052 345.62 119.052C345.62 119.052 349.827 113.268 355.437 112.917Z" fill="#3FCAEC"/>
<path d="M363.149 100.296C367.882 99.9455 372.089 104.503 372.089 104.503C372.089 104.503 368.583 109.586 363.85 109.762C359.118 110.112 354.911 105.555 354.911 105.555C354.911 105.555 358.416 100.471 363.149 100.296Z" fill="#3FCAEC"/>
<path d="M347.198 100.121C345.62 95.9139 348.6 90.8306 348.6 90.8306C348.6 90.8306 354.209 92.7587 355.787 96.9657C357.365 101.173 354.385 106.256 354.385 106.256C354.385 106.256 348.775 104.328 347.198 100.121Z" fill="#3FCAEC"/>
<path d="M359.994 88.5521C358.592 85.0463 361.221 80.6641 361.221 80.6641C361.221 80.6641 365.954 82.2417 367.181 85.7474C368.583 89.2532 365.954 93.6354 365.954 93.6354C365.954 93.6354 361.396 92.0578 359.994 88.5521Z" fill="#3FCAEC"/>
<path d="M374.368 90.1299C378.049 90.831 380.327 95.2133 380.327 95.2133C380.327 95.2133 376.471 98.3685 372.79 97.492C369.109 96.6156 366.83 92.4086 366.83 92.4086C366.83 92.4086 370.686 89.2534 374.368 90.1299Z" fill="#3FCAEC"/>
<path d="M374.718 80.1381C377.523 77.684 382.431 78.3852 382.431 78.3852C382.431 78.3852 382.606 83.2933 379.802 85.7473C376.997 88.2014 372.089 87.5002 372.089 87.5002C372.089 87.5002 371.914 82.7674 374.718 80.1381Z" fill="#3FCAEC"/>
<path d="M169.104 340.793C155.432 312.922 133.17 289.258 106 274.008L106.701 272.781C134.222 288.031 156.834 311.871 170.682 340.092L169.104 340.793Z" fill="#3FCAEC"/>
<path d="M172.961 316.253C175.064 309.767 170.331 302.229 170.331 302.229C170.331 302.229 162.093 305.385 159.814 311.87C157.711 318.356 162.443 325.894 162.443 325.894C162.443 325.894 170.857 322.738 172.961 316.253Z" fill="#3FCAEC"/>
<path d="M158.412 299.25C160.515 293.115 155.957 286.103 155.957 286.103C155.957 286.103 148.245 289.083 146.141 295.218C144.038 301.353 148.595 308.365 148.595 308.365C148.595 308.365 156.483 305.385 158.412 299.25Z" fill="#3FCAEC"/>
<path d="M133.17 299.775C126.684 300.652 122.477 307.663 122.477 307.663C122.477 307.663 128.437 313.448 134.923 312.572C141.408 311.695 145.615 304.684 145.615 304.684C145.615 304.684 139.48 298.899 133.17 299.775Z" fill="#3FCAEC"/>
<path d="M121.601 286.979C116.167 287.68 112.486 293.815 112.486 293.815C112.486 293.815 117.569 298.724 123.003 298.022C128.437 297.321 132.118 291.186 132.118 291.186C132.118 291.186 127.035 286.278 121.601 286.979Z" fill="#3FCAEC"/>
<path d="M139.481 283.123C140.357 277.865 135.8 272.957 135.8 272.957C135.8 272.957 129.84 276.287 129.139 281.546C128.262 286.804 132.82 291.712 132.82 291.712C132.82 291.712 138.779 288.382 139.481 283.123Z" fill="#3FCAEC"/>
<path d="M122.478 272.956C123.179 268.574 119.498 264.367 119.498 264.367C119.498 264.367 114.59 267.172 113.888 271.554C113.187 275.936 116.868 280.143 116.868 280.143C116.868 280.143 121.776 277.339 122.478 272.956Z" fill="#3FCAEC"/>
<path d="M106.526 277.864C102.495 279.617 100.917 285.051 100.917 285.051C100.917 285.051 106 287.681 110.032 286.103C114.064 284.35 115.641 278.916 115.641 278.916C115.641 278.916 110.558 276.287 106.526 277.864Z" fill="#3FCAEC"/>
<path d="M103.897 266.821C100.04 264.543 94.7817 266.471 94.7817 266.471C94.7817 266.471 95.6582 272.08 99.5145 274.359C103.371 276.638 108.63 274.534 108.63 274.534C108.63 274.534 107.753 268.925 103.897 266.821Z" fill="#3FCAEC"/>
<path d="M148.771 317.655C141.934 317.48 136.15 324.141 136.15 324.141C136.15 324.141 141.409 331.153 148.245 331.503C155.081 331.678 160.866 325.017 160.866 325.017C160.866 325.017 155.607 318.006 148.771 317.655Z" fill="#3FCAEC"/>
<path d="M335.979 131.323H146.492C135.799 131.323 127.21 139.912 127.21 150.605V280.494C127.21 291.186 135.799 299.775 146.492 299.775H335.979C346.672 299.775 355.261 291.186 355.261 280.494V150.605C355.261 140.087 346.672 131.323 335.979 131.323Z" fill="#415256"/>
<path d="M145.791 249.994C141.584 249.994 138.078 246.488 138.078 242.281L138.604 150.43C138.604 146.223 142.11 142.717 146.317 142.717H336.33C340.537 142.717 344.043 146.223 344.043 150.43L343.517 242.456C343.517 246.663 340.011 250.169 335.804 250.169H145.791V249.994Z" fill="white"/>
<path d="M127.21 262.965V280.494C127.21 291.186 135.799 299.776 146.492 299.776H335.979C346.672 299.776 355.261 291.186 355.261 280.494V262.965H127.21Z" fill="#93A5AA"/>
<path d="M274.979 299.951H207.492V325.543H274.979V299.951Z" fill="#93A5AA"/>
<path d="M274.979 299.951H207.492V307.663H274.979V299.951Z" fill="#718084"/>
<path d="M288.827 325.543H193.645C184.355 325.543 176.992 333.08 176.992 342.195V345.175H305.655V342.195C305.655 332.905 298.117 325.543 288.827 325.543Z" fill="#415256"/>
<path d="M249.387 282.948C249.387 287.505 245.706 291.186 241.148 291.186C236.59 291.186 232.909 287.505 232.909 282.948C232.909 278.39 236.59 274.709 241.148 274.709C245.706 274.709 249.387 278.565 249.387 282.948Z" fill="#415256"/>
<path d="M312.841 155.863H167.176C164.547 155.863 162.268 157.967 162.268 160.771V167.958C162.268 170.588 164.372 172.866 167.176 172.866H312.841C315.471 172.866 317.749 170.763 317.749 167.958V160.771C317.749 157.967 315.471 155.863 312.841 155.863Z" fill="white"/>
<path d="M310.205 220.288H166.187C164.449 220.288 163 221.234 163 222.369V225.207C163 226.342 164.449 227.288 166.187 227.288H310.494C313.392 227.288 316 225.774 316 223.693C315.71 221.801 313.392 220.288 310.205 220.288Z" fill="#E9F3F7"/>
<path d="M251.665 220.72H164.547C163.495 220.72 162.619 221.597 162.619 222.648V225.278C162.619 226.329 163.495 227.206 164.547 227.206H251.841C253.594 227.206 255.171 225.804 255.171 223.875C254.996 222.123 253.594 220.72 251.665 220.72Z" fill="#3FCAEC"/>
<path d="M221.34 233.166H164.547C163.495 233.166 162.619 234.042 162.619 235.094V237.898C162.619 238.95 163.495 239.827 164.547 239.827H221.34C222.392 239.827 223.269 238.95 223.269 237.898V235.094C223.269 233.867 222.392 233.166 221.34 233.166Z" fill="white"/>
<path d="M193.119 167.958C194.571 167.958 195.748 166.781 195.748 165.329C195.748 163.877 194.571 162.7 193.119 162.7C191.667 162.7 190.49 163.877 190.49 165.329C190.49 166.781 191.667 167.958 193.119 167.958Z" fill="#415256"/>
<path d="M211.875 167.958C213.327 167.958 214.504 166.781 214.504 165.329C214.504 163.877 213.327 162.7 211.875 162.7C210.423 162.7 209.245 163.877 209.245 165.329C209.245 166.781 210.423 167.958 211.875 167.958Z" fill="#415256"/>
<path d="M230.456 167.958C231.908 167.958 233.085 166.781 233.085 165.329C233.085 163.877 231.908 162.7 230.456 162.7C229.003 162.7 227.826 163.877 227.826 165.329C227.826 166.781 229.003 167.958 230.456 167.958Z" fill="#415256"/>
<path d="M249.211 167.958C250.664 167.958 251.841 166.781 251.841 165.329C251.841 163.877 250.664 162.7 249.211 162.7C247.759 162.7 246.582 163.877 246.582 165.329C246.582 166.781 247.759 167.958 249.211 167.958Z" fill="#415256"/>
<path d="M267.792 167.958C269.244 167.958 270.421 166.781 270.421 165.329C270.421 163.877 269.244 162.7 267.792 162.7C266.34 162.7 265.163 163.877 265.163 165.329C265.163 166.781 266.34 167.958 267.792 167.958Z" fill="#415256"/>
<path d="M286.548 167.958C288 167.958 289.177 166.781 289.177 165.329C289.177 163.877 288 162.7 286.548 162.7C285.096 162.7 283.918 163.877 283.918 165.329C283.918 166.781 285.096 167.958 286.548 167.958Z" fill="#415256"/>
<path d="M269.545 182.858H250.789C247.458 182.858 244.829 185.487 244.829 188.818V207.574C244.829 210.904 247.458 213.533 250.789 213.533H269.545C272.875 213.533 275.505 210.904 275.505 207.574V188.642C275.505 185.487 272.875 182.858 269.545 182.858Z" fill="#DFEAED"/>
<path d="M227.125 182.858H208.369C205.039 182.858 202.409 185.487 202.409 188.818V207.574C202.409 210.904 205.039 213.533 208.369 213.533H227.125C230.455 213.533 233.085 210.904 233.085 207.574V188.642C233.085 185.487 230.455 182.858 227.125 182.858Z" fill="#415256"/>
<path d="M310.037 182.858H291.281C287.95 182.858 285.321 185.487 285.321 188.818V207.574C285.321 210.904 287.95 213.533 291.281 213.533H310.037C313.367 213.533 315.996 210.904 315.996 207.574V188.642C315.996 185.487 313.367 182.858 310.037 182.858Z" fill="#93A5AA"/>
<path d="M185.406 182.858H166.65C163.32 182.858 160.69 185.487 160.69 188.818V207.574C160.69 210.904 163.32 213.533 166.65 213.533H185.406C188.737 213.533 191.366 210.904 191.366 207.574V188.642C191.191 185.487 188.561 182.858 185.406 182.858Z" fill="#93A5AA"/>
<path d="M131.768 164.803C147.257 164.803 159.814 152.246 159.814 136.757C159.814 121.267 147.257 108.71 131.768 108.71C116.278 108.71 103.721 121.267 103.721 136.757C103.721 152.246 116.278 164.803 131.768 164.803Z" fill="#3FCAEC"/>
<path d="M126.684 149.202C125.983 149.202 125.282 148.852 124.756 148.326L115.641 139.211C114.589 138.159 114.589 136.231 115.641 135.179C116.693 134.127 118.621 134.127 119.673 135.179L126.86 142.366L143.161 126.064C144.213 125.012 146.141 125.012 147.193 126.064C148.245 127.116 148.245 129.044 147.193 130.096L128.788 148.326C128.262 148.852 127.561 149.202 126.684 149.202Z" fill="white"/>
<path d="M387.689 147.8H340.186C336.856 147.8 334.226 150.429 334.226 153.76V195.829C334.226 197.407 336.154 198.108 337.206 197.056L348.074 186.188C348.951 185.312 350.353 184.786 351.755 184.786H387.865C391.195 184.786 394 181.981 394 178.651V153.76C393.825 150.429 391.02 147.8 387.689 147.8Z" fill="#3FCAEC"/>
<path d="M381.905 158.667H348.074C346.847 158.667 345.795 159.719 345.795 160.946C345.795 162.173 346.847 163.225 348.074 163.225H381.905C383.132 163.225 384.184 162.173 384.184 160.946C384.184 159.719 383.132 158.667 381.905 158.667Z" fill="white"/>
<path d="M368.758 171.289H348.074C346.847 171.289 345.795 172.34 345.795 173.567C345.795 174.794 346.847 175.846 348.074 175.846H368.758C369.985 175.846 371.037 174.794 371.037 173.567C370.862 172.165 369.81 171.289 368.758 171.289Z" fill="white"/>
<path d="M178.745 99.946L181.9 107.133C182.076 107.308 182.251 107.659 182.426 107.659L189.613 110.814C190.49 111.164 190.49 112.392 189.613 112.742L182.426 116.073C182.251 116.248 181.9 116.423 181.9 116.598L178.745 123.785C178.395 124.662 177.168 124.662 176.817 123.785L173.662 116.598C173.487 116.423 173.311 116.073 173.136 116.073L165.949 112.917C165.073 112.567 165.073 111.34 165.949 110.989L173.136 107.834C173.311 107.659 173.662 107.483 173.662 107.308L176.817 100.121C177.168 99.0696 178.395 99.0696 178.745 99.946Z" fill="#C1E3ED"/>
<path d="M150.173 79.9629L152.802 85.7474C152.978 85.9227 152.978 86.098 153.328 86.2733L159.113 88.9026C159.814 89.2532 159.814 90.3049 159.113 90.4802L153.328 93.1096C153.153 93.2848 152.978 93.2848 152.802 93.6354L150.173 99.42C149.823 100.121 148.771 100.121 148.595 99.42L145.966 93.6354C145.791 93.4601 145.791 93.2848 145.44 93.1096L139.656 90.4802C138.955 90.1296 138.955 89.0779 139.656 88.9026L145.44 86.2733C145.616 86.098 145.791 86.098 145.966 85.7474L148.595 79.9629C148.946 79.2617 149.998 79.2617 150.173 79.9629Z" fill="#C1E3ED"/>
<path d="M183.127 77.6843L184.705 81.1901C184.705 81.3654 184.88 81.3654 185.055 81.5407L188.561 83.1183C188.912 83.2936 188.912 83.8194 188.561 83.9947L185.055 85.5723C184.88 85.5723 184.88 85.7476 184.705 85.9229L183.127 89.4287C182.952 89.7793 182.426 89.7793 182.251 89.4287L180.673 85.9229C180.673 85.7476 180.498 85.7476 180.323 85.5723L176.817 83.9947C176.466 83.8194 176.466 83.2936 176.817 83.1183L180.323 81.5407C180.498 81.5407 180.498 81.3654 180.673 81.1901L182.251 77.6843C182.426 77.3337 182.952 77.3337 183.127 77.6843Z" fill="#C1E3ED"/>
<path d="M379.802 256.83L382.256 262.614C382.431 262.789 382.431 262.965 382.781 263.14L388.566 265.594C389.267 265.945 389.267 266.821 388.566 267.172L382.781 269.626C382.606 269.801 382.431 269.801 382.256 270.152L379.802 275.936C379.451 276.637 378.574 276.637 378.224 275.936L375.77 270.152C375.595 269.976 375.595 269.801 375.244 269.626L369.459 267.172C368.758 266.821 368.758 265.945 369.459 265.594L375.244 263.14C375.419 262.965 375.595 262.965 375.77 262.614L378.224 256.83C378.399 256.128 379.451 256.128 379.802 256.83Z" fill="#93A5AA"/>
<path d="M356.839 240.878L358.942 245.611C358.942 245.786 359.117 245.961 359.293 245.961L364.025 248.065C364.551 248.24 364.551 249.116 364.025 249.292L359.293 251.395C359.117 251.395 358.942 251.571 358.942 251.746L356.839 256.479C356.663 257.005 355.787 257.005 355.612 256.479L353.508 251.746C353.508 251.571 353.333 251.395 353.157 251.395L348.425 249.292C347.899 249.116 347.899 248.24 348.425 248.065L353.157 245.961C353.333 245.961 353.508 245.786 353.508 245.611L355.612 240.878C355.787 240.177 356.663 240.177 356.839 240.878Z" fill="#93A5AA"/>
<path d="M383.307 238.95L384.534 241.755C384.534 241.93 384.71 241.93 384.71 241.93L387.514 243.157C387.865 243.332 387.865 243.858 387.514 243.858L384.71 245.085C384.534 245.085 384.534 245.26 384.534 245.26L383.307 248.065C383.132 248.416 382.606 248.416 382.606 248.065L381.379 245.26C381.379 245.085 381.204 245.085 381.204 245.085L378.399 243.858C378.049 243.683 378.049 243.157 378.399 243.157L381.204 241.93C381.379 241.93 381.379 241.755 381.379 241.755L382.606 238.95C382.606 238.599 383.132 238.599 383.307 238.95Z" fill="#93A5AA"/>
<path d="M327.39 338.339V345H309.335C308.284 345 307.758 343.598 308.634 342.896C310.738 341.319 314.419 339.215 319.677 338.339H327.39Z" fill="#1E2A2E"/>
<path d="M360.169 338.339V345H342.114C341.063 345 340.537 343.598 341.413 342.896C343.517 341.319 347.198 339.215 352.456 338.339H360.169Z" fill="#1E2A2E"/>
<path d="M360.345 338.514C359.118 329.925 350.704 272.43 348.951 271.028C347.198 269.625 334.227 284.525 334.227 284.525C335.629 285.927 348.776 329.574 352.632 338.514H360.345Z" fill="#2C3A3E"/>
<path d="M327.215 338.514C330.195 328.873 337.031 298.198 345.27 287.505C349.126 282.422 349.126 269.801 349.126 269.801L326.514 274.358C322.833 281.896 320.379 326.945 319.853 338.514H327.215Z" fill="#415256"/>
<path d="M342.816 239.651C341.413 235.795 321.255 210.553 321.255 210.553L314.068 213.884C314.068 213.884 327.39 237.197 330.721 242.105L342.816 239.651Z" fill="#2EB5D6"/>
<path d="M326.689 220.019C326.689 220.019 320.203 216.513 325.287 209.501C325.287 209.501 327.916 213.884 332.999 212.481C348.775 207.573 349.477 224.05 346.672 230.01C345.445 232.64 342.29 234.568 341.589 234.392C340.887 234.217 337.907 228.433 337.907 228.433L326.689 220.019Z" fill="#1E2A2E"/>
<path d="M326.864 219.668C325.988 220.895 326.163 223.524 326.163 225.102C326.163 229.309 328.968 232.464 332.649 232.464C335.278 232.464 337.557 230.711 338.784 228.432C340.186 228.783 341.589 227.556 342.115 226.154C342.64 224.576 341.939 222.998 340.537 222.473C340.011 222.297 339.31 222.823 338.784 222.998C338.784 222.998 335.979 221.947 334.928 219.142L326.864 219.668Z" fill="#ECD2C7"/>
<path d="M341.063 227.556L334.051 228.958V237.197H341.063V227.556Z" fill="#ECD2C7"/>
<path d="M351.405 271.028C351.405 271.028 346.146 241.229 345.445 239.301C344.569 237.373 341.764 236.146 333.701 236.321C329.143 236.321 314.244 233.691 311.79 232.64C309.335 231.588 296.014 215.461 296.014 215.461L289.878 219.493C289.878 219.493 302.499 239.301 306.18 240.703C310.037 241.93 323.534 246.663 323.534 246.663L324.06 275.761C324.06 275.41 342.465 283.999 351.405 271.028Z" fill="#3FCAEC"/>
<path d="M295.838 215.636C295.838 215.636 292.683 207.748 291.807 207.573C291.105 207.398 290.579 210.553 290.579 210.553C290.579 210.553 287.6 203.191 286.022 203.016C284.444 203.016 282.867 211.78 290.229 218.967L295.838 215.636Z" fill="#ECD2C7"/>
<path d="M315.295 213.358C315.295 213.358 309.511 206.697 310.562 206.346C311.614 206.171 313.893 207.924 313.893 207.924C313.893 207.924 309.861 198.809 312.491 198.458C315.12 198.108 320.203 206.522 321.255 210.378L315.295 213.358Z" fill="#ECD2C7"/>
<path d="M214 86.3C215.4 79.2 219 72.8 223.9 67.9C228.9 62.9 235.2 59.5 242.3 58V71.9C239 73 235.9 75 233.4 77.4C230.9 79.9 228.9 82.9 227.9 86.4H214V86.3Z" fill="#415256"/>
<path d="M242.3 117.7C235.2 116.3 228.9 112.7 223.9 107.8C218.9 102.8 215.4 96.4999 214 89.3999H227.9C229 92.7999 231 95.8999 233.4 98.3999C235.9 100.9 238.9 102.8 242.3 103.9V117.7Z" fill="#3FCAEC"/>
<path d="M273.6 89.4999C272.2 96.6999 268.6 103 263.7 107.9C258.7 112.9 252.4 116.4 245.3 117.8V103.9C248.7 102.8 251.8 100.8 254.3 98.3999C256.8 95.8999 258.7 92.8999 259.8 89.3999H273.6V89.4999Z" fill="#415256"/>
<path d="M245.3 58C252.5 59.5 258.8 63 263.7 67.9C268.7 72.9 272.2 79.3 273.6 86.3H259.9C258.8 82.9 256.8 79.8 254.4 77.3C251.9 74.8 248.9 72.9 245.4 71.8V58H245.3Z" fill="#3FCAEC"/>
</svg>
