<svg width="16" height="16" viewBox="0 0 16 16" fill="none" xmlns="http://www.w3.org/2000/svg">
<path d="M11.2 1.3335H9.46667C7.33333 1.3335 6 2.66683 6 4.80016V7.50016H10.1667C10.44 7.50016 10.6667 7.72683 10.6667 8.00016C10.6667 8.2735 10.44 8.50016 10.1667 8.50016H6V11.2002C6 13.3335 7.33333 14.6668 9.46667 14.6668H11.1933C13.3267 14.6668 14.66 13.3335 14.66 11.2002V4.80016C14.6667 2.66683 13.3333 1.3335 11.2 1.3335Z" fill="#F36363"/>
<path d="M3.03996 7.50022L4.41996 6.12022C4.51996 6.02022 4.56663 5.89355 4.56663 5.76689C4.56663 5.64022 4.51996 5.50689 4.41996 5.41355C4.22663 5.22022 3.90663 5.22022 3.71329 5.41355L1.47996 7.64689C1.28663 7.84022 1.28663 8.16022 1.47996 8.35355L3.71329 10.5869C3.90663 10.7802 4.22663 10.7802 4.41996 10.5869C4.61329 10.3936 4.61329 10.0736 4.41996 9.88022L3.03996 8.50022H5.99996V7.50022H3.03996Z" fill="#F36363"/>
</svg>
