<svg width="16" height="16" viewBox="0 0 16 16" fill="none" xmlns="http://www.w3.org/2000/svg">
<path d="M11.728 0C14.448 0 16 1.536 16 4.264V11.736C16 14.448 14.456 16 11.736 16H4.264C1.536 16 0 14.448 0 11.736V4.264C0 1.536 1.536 0 4.264 0H11.728ZM7.992 4.408C7.624 4.408 7.328 4.704 7.328 5.072V7.328H5.064C4.888 7.328 4.72 7.4 4.592 7.52C4.472 7.648 4.4 7.8152 4.4 7.992C4.4 8.36 4.696 8.656 5.064 8.664H7.328V10.928C7.328 11.296 7.624 11.592 7.992 11.592C8.36 11.592 8.656 11.296 8.656 10.928V8.664H10.928C11.296 8.656 11.592 8.36 11.592 7.992C11.592 7.624 11.296 7.328 10.928 7.328H8.656V5.072C8.656 4.704 8.36 4.408 7.992 4.408Z" fill="white"/>
</svg>
